<svg width="306" height="174" viewBox="0 0 306 174" fill="none" xmlns="http://www.w3.org/2000/svg">
<g clip-path="url(#clip0)">
<g opacity="0.7">
<path opacity="0.7" d="M224.553 22H80.1618C78.9244 22.0048 77.7393 22.5312 76.8672 23.4635C75.9951 24.3958 75.5074 25.6577 75.5111 26.9718V132.5C75.5074 133.814 75.9951 135.076 76.8672 136.008C77.7393 136.94 78.9244 137.467 80.1618 137.472H129.822V155.687H127.558C127.248 155.689 126.94 155.755 126.653 155.882C126.367 156.01 126.106 156.196 125.887 156.43C125.668 156.664 125.495 156.942 125.377 157.247C125.259 157.553 125.199 157.88 125.2 158.21V161.864H129.822V164.026H174.892V161.864H179.515V158.21C179.516 157.88 179.456 157.553 179.338 157.247C179.22 156.942 179.046 156.664 178.827 156.43C178.608 156.196 178.348 156.01 178.061 155.882C177.775 155.755 177.467 155.689 177.156 155.687H175.026V155.53H174.881V137.472H224.553C225.79 137.467 226.976 136.94 227.848 136.008C228.72 135.076 229.207 133.814 229.204 132.5V26.9718C229.207 25.6577 228.72 24.3958 227.848 23.4635C226.976 22.5312 225.79 22.0048 224.553 22Z" fill="url(#paint0_linear)"/>
</g>
<path d="M175 134H130V163H175V134Z" fill="#BDBDBD"/>
<g opacity="0.1">
<path opacity="0.1" d="M131.134 137.06H173.954C174.47 134.677 174.884 133.124 174.884 133.124H130.116C130.116 133.124 130.575 134.671 131.134 137.06Z" fill="black"/>
</g>
<path d="M81.5697 23H223.43C224.642 23 225.805 23.5131 226.662 24.4264C227.519 25.3396 228 26.5783 228 27.8698V121H77V27.8698C77 26.5783 77.4815 25.3396 78.3384 24.4264C79.1954 23.5131 80.3578 23 81.5697 23Z" fill="#535461"/>
<path d="M223.43 136H81.5697C80.3578 136 79.1954 135.491 78.3384 134.585C77.4815 133.68 77 132.451 77 131.17V121H228V131.17C228 132.451 227.519 133.68 226.662 134.585C225.805 135.491 224.642 136 223.43 136Z" fill="#BDBDBD"/>
<path d="M152.5 131C153.881 131 155 129.881 155 128.5C155 127.119 153.881 126 152.5 126C151.119 126 150 127.119 150 128.5C150 129.881 151.119 131 152.5 131Z" fill="#535461"/>
<path d="M127.39 154H177.61C178.244 154 178.852 154.258 179.3 154.718C179.748 155.178 180 155.801 180 156.451V160H125V156.451C125 156.129 125.062 155.81 125.182 155.513C125.302 155.216 125.478 154.946 125.7 154.718C125.922 154.49 126.186 154.31 126.475 154.187C126.765 154.063 127.076 154 127.39 154Z" fill="#BDBDBD"/>
<g opacity="0.5">
<path opacity="0.5" d="M198.266 43.5344H106.734C106.026 43.5344 105.451 44.1444 105.451 44.8969V99.0235C105.451 99.776 106.026 100.386 106.734 100.386H198.266C198.974 100.386 199.549 99.776 199.549 99.0235V44.8969C199.549 44.1444 198.974 43.5344 198.266 43.5344Z" fill="url(#paint1_linear)"/>
</g>
<path d="M197.698 44H107.302C106.583 44 106 44.6134 106 45.3699V98.6302C106 99.3867 106.583 100 107.302 100H197.698C198.417 100 199 99.3867 199 98.6302V45.3699C199 44.6134 198.417 44 197.698 44Z" fill="white"/>
<g opacity="0.5">
<path opacity="0.5" d="M141.02 51.9489H133.481C132.772 51.9489 132.198 52.5589 132.198 53.3114V60.2453C132.198 60.9978 132.772 61.6078 133.481 61.6078H141.02C141.729 61.6078 142.303 60.9978 142.303 60.2453V53.3114C142.303 52.5589 141.729 51.9489 141.02 51.9489Z" fill="#3787FF"/>
</g>
<path d="M172.482 52H145.518C145.232 52 145 52.2239 145 52.5C145 52.7762 145.232 53 145.518 53H172.482C172.768 53 173 52.7762 173 52.5C173 52.2239 172.768 52 172.482 52Z" fill="#E0E0E0"/>
<path d="M167.488 55H145.512C145.229 55 145 55.2239 145 55.5C145 55.7762 145.229 56 145.512 56H167.488C167.771 56 168 55.7762 168 55.5C168 55.2239 167.771 55 167.488 55Z" fill="#E0E0E0"/>
<g opacity="0.5">
<path opacity="0.5" d="M141.02 66.9732H133.481C132.772 66.9732 132.198 67.5833 132.198 68.3358V75.2696C132.198 76.0222 132.772 76.6322 133.481 76.6322H141.02C141.729 76.6322 142.303 76.0222 142.303 75.2696V68.3358C142.303 67.5833 141.729 66.9732 141.02 66.9732Z" fill="#3787FF"/>
</g>
<path d="M172.482 67H145.518C145.232 67 145 67.2239 145 67.5C145 67.7762 145.232 68 145.518 68H172.482C172.768 68 173 67.7762 173 67.5C173 67.2239 172.768 67 172.482 67Z" fill="#E0E0E0"/>
<path d="M172.482 70H145.518C145.232 70 145 70.2239 145 70.5C145 70.7762 145.232 71 145.518 71H172.482C172.768 71 173 70.7762 173 70.5C173 70.2239 172.768 70 172.482 70Z" fill="#E0E0E0"/>
<g opacity="0.5">
<path opacity="0.5" d="M141.02 81.9977H133.481C132.772 81.9977 132.198 82.6077 132.198 83.3602V90.2941C132.198 91.0466 132.772 91.6566 133.481 91.6566H141.02C141.729 91.6566 142.303 91.0466 142.303 90.2941V83.3602C142.303 82.6077 141.729 81.9977 141.02 81.9977Z" fill="#3787FF"/>
</g>
<path d="M172.482 82H145.518C145.232 82 145 82.2239 145 82.5C145 82.7762 145.232 83 145.518 83H172.482C172.768 83 173 82.7762 173 82.5C173 82.2239 172.768 82 172.482 82Z" fill="#E0E0E0"/>
<path d="M172.538 86H145.462C145.207 86 145 86.2011 145 86.4492V86.5509C145 86.799 145.207 87 145.462 87H172.538C172.793 87 173 86.799 173 86.5509V86.4492C173 86.2011 172.793 86 172.538 86Z" fill="#E0E0E0"/>
<path d="M153 34V28" stroke="#3787FF" stroke-width="2" stroke-miterlimit="10"/>
<path d="M153 46V37" stroke="#3787FF" stroke-width="2" stroke-miterlimit="10"/>
<path d="M152.5 47C153.328 47 154 46.5523 154 46C154 45.4478 153.328 45 152.5 45C151.672 45 151 45.4478 151 46C151 46.5523 151.672 47 152.5 47Z" fill="#3787FF"/>
<path d="M152.5 37C153.328 37 154 36.3285 154 35.5C154 34.6716 153.328 34 152.5 34C151.672 34 151 34.6716 151 35.5C151 36.3285 151.672 37 152.5 37Z" stroke="white" stroke-miterlimit="10"/>
<path d="M153 34V28" stroke="#3787FF" stroke-width="2" stroke-miterlimit="10"/>
<path d="M153 46V37" stroke="#3787FF" stroke-width="2" stroke-miterlimit="10"/>
<path d="M152.5 47C153.328 47 154 46.5523 154 46C154 45.4478 153.328 45 152.5 45C151.672 45 151 45.4478 151 46C151 46.5523 151.672 47 152.5 47Z" fill="#3787FF"/>
<path d="M152.5 37C153.328 37 154 36.3285 154 35.5C154 34.6716 153.328 34 152.5 34C151.672 34 151 34.6716 151 35.5C151 36.3285 151.672 37 152.5 37Z" stroke="white" stroke-miterlimit="10"/>
<path d="M153 107V116" stroke="#3787FF" stroke-width="2" stroke-miterlimit="10"/>
<path d="M153 98V107" stroke="#3787FF" stroke-width="2" stroke-miterlimit="10"/>
<path d="M152.5 99C153.328 99 154 98.5523 154 98C154 97.4478 153.328 97 152.5 97C151.672 97 151 97.4478 151 98C151 98.5523 151.672 99 152.5 99Z" fill="#3787FF"/>
<path d="M101 73H92" stroke="#3787FF" stroke-width="2" stroke-miterlimit="10"/>
<path d="M109 73H101" stroke="#3787FF" stroke-width="2" stroke-miterlimit="10"/>
<path d="M109 74C109.552 74 110 73.3285 110 72.5C110 71.6716 109.552 71 109 71C108.448 71 108 71.6716 108 72.5C108 73.3285 108.448 74 109 74Z" fill="#3787FF"/>
<g opacity="0.1">
<path opacity="0.1" d="M174.884 153.865H130.401V154.773H174.884V153.865Z" fill="black"/>
</g>
<g opacity="0.7">
<path opacity="0.7" d="M67.9195 133.198H47.2751L47.5602 130.734C53.3943 125.171 57.1667 110.353 57.1667 110.353C57.083 110.365 57.0001 110.384 56.9186 110.407C53.4969 111.14 51.0618 112.633 49.3595 114.428L50.0837 107.87C60.8622 105.405 65.1365 90.2659 65.1365 90.2659C58.2588 91.8858 53.9702 94.3929 51.307 96.7728L52.3677 87.1381C59.656 89.7936 67.1952 75.6866 67.1952 75.6866L66.9101 75.623L67.0526 75.5261L66.8359 75.6079C58.7806 73.7639 54.4749 78.6539 53.0777 80.6857L53.1832 79.741C52.9703 80.3465 52.7631 80.94 52.5616 81.5214V81.5456C51.9913 83.1867 51.4695 84.8076 50.9962 86.4084C50.5837 87.775 50.1978 89.1274 49.8385 90.4657V90.4476C49.8385 90.4476 49.5049 81.8302 40.9477 79.5623C40.9477 79.5623 41.8459 98.3564 48.6267 95.2801C47.9993 98.0052 47.4861 100.627 47.0412 103.174C46.758 104.831 46.5109 106.446 46.2999 108.018L46.26 108.067L46.2999 108.031L46.2828 108.155C46.0927 109.582 45.9311 110.973 45.798 112.327C45.9292 109.717 45.4815 102.178 37.1154 95.0924C37.1154 95.0924 25.9948 115.846 44.9568 119.921C44.9996 119.96 45.0424 120 45.0823 120.036L45.0538 119.942L45.2249 119.982L45.3019 118.916C45.0733 123.364 45.0952 127.823 45.3675 132.269C45.3874 132.572 45.4074 132.874 45.4273 133.162H24.5463C16.5793 150.66 28.9717 160.25 28.9717 160.25H63.1889C76.4767 142.464 67.9195 133.198 67.9195 133.198Z" fill="url(#paint2_linear)"/>
</g>
<path opacity="0.6" d="M46.0997 140C46.0997 140 41.2256 114.663 52 82" stroke="#535461" stroke-width="3" stroke-miterlimit="10"/>
<path d="M25.52 132H66.4402C66.4402 132 74.5129 143.261 61.9863 160H29.6955C29.6955 160 18.004 148.435 25.52 132Z" fill="#3787FF"/>
<path d="M51.568 84.1828C51.568 84.1828 55.8182 75.9513 66 78.4841C66 78.4841 57.584 94.0796 50 88.9729L51.568 84.1828Z" fill="#4DB6AC"/>
<path d="M49 92.1683C49 92.1683 48.7 84.1191 41 82C41 82 41.7965 99.5575 47.9034 96.6817L49 92.1683Z" fill="#4DB6AC"/>
<path d="M46.7668 104.236C46.7668 104.236 48.3568 95.6838 65 92C65 92 59.692 109.688 46 108.979L46.7668 104.236Z" fill="#4DB6AC"/>
<path d="M45.8892 113.803C45.8892 113.803 47.6366 105.083 37.2531 97C37.2531 97 25.9796 116.36 45.4056 120L45.8892 113.803Z" fill="#4DB6AC"/>
<path d="M45.0271 125.517C45.0271 125.517 43.9116 113.362 56 111C56 111 51.585 127.974 45.0106 131L45.0271 125.517Z" fill="#4DB6AC"/>
<path opacity="0.3" d="M50 89C50 89 61.2593 79.6177 66 78" stroke="#535461" stroke-miterlimit="10"/>
<path opacity="0.3" d="M46 109C46 109 59.6562 93.8546 65 92" stroke="#535461" stroke-miterlimit="10"/>
<path opacity="0.3" d="M41 82C41 82 48.5089 93.875 47.9726 97" stroke="#535461" stroke-miterlimit="10"/>
<path opacity="0.3" d="M37 97C37 97 41.4444 117.312 45 120" stroke="#535461" stroke-miterlimit="10"/>
<path opacity="0.3" d="M45 131C45 131 51.6 111.588 56 111" stroke="#535461" stroke-miterlimit="10"/>
<g opacity="0.1">
<path opacity="0.1" d="M66.9272 132.272H25.011C24.9169 132.475 24.8257 132.678 24.7259 132.877H65.5015C65.5015 132.877 73.5682 143.811 61.3954 160.128H62.3649C75.1964 143.475 66.9272 132.272 66.9272 132.272Z" fill="black"/>
</g>
<path d="M285 160H20V170H285V160Z" fill="#E0E0E0"/>
<path d="M276 170H29V174H276V170Z" fill="#E0E0E0"/>
<path opacity="0.1" d="M276 170H29V171H276V170Z" fill="black"/>
<path d="M211 73H213" stroke="#3787FF" stroke-width="2" stroke-miterlimit="10"/>
<path d="M196 73H208" stroke="#3787FF" stroke-width="2" stroke-miterlimit="10"/>
<path d="M196 74C196.552 74 197 73.3285 197 72.5C197 71.6716 196.552 71 196 71C195.448 71 195 71.6716 195 72.5C195 73.3285 195.448 74 196 74Z" fill="#3787FF"/>
<path d="M209.5 74C210.328 74 211 73.3285 211 72.5C211 71.6716 210.328 71 209.5 71C208.672 71 208 71.6716 208 72.5C208 73.3285 208.672 74 209.5 74Z" stroke="white" stroke-miterlimit="10"/>
<g opacity="0.7">
<path opacity="0.7" d="M267.179 157.602L267.207 157.556C267.266 157.459 267.324 157.359 267.381 157.254L267.412 157.196C267.467 157.097 267.52 156.996 267.569 156.893L267.595 156.842C267.652 156.724 267.706 156.606 267.755 156.481C267.857 156.234 267.947 155.98 268.023 155.721L268.051 155.622C268.077 155.528 268.102 155.434 268.125 155.34L268.154 155.207C268.173 155.122 268.19 155.036 268.205 154.949C268.205 154.901 268.222 154.852 268.231 154.804C268.239 154.756 268.256 154.634 268.268 154.547C268.279 154.459 268.268 154.447 268.285 154.398C268.302 154.35 268.302 154.214 268.308 154.12C268.308 154.077 268.308 154.032 268.308 153.99C268.308 153.853 268.308 153.714 268.308 153.578V128.57H264.358V116.313H259.511V128.57H256.169V110.966H251.322V128.57H249.5V108.45H244.652V128.57H240.375V153.581C240.375 157.662 243.571 160.969 247.504 160.969H261.191C262.309 160.974 263.414 160.701 264.416 160.172C265.418 159.643 266.29 158.873 266.962 157.923C267.032 157.816 267.104 157.709 267.179 157.602Z" fill="url(#paint3_linear)"/>
</g>
<path d="M249 120H246V150H249V120Z" fill="#535461"/>
<path d="M249 110H246V120H249V110Z" fill="#3AD29F"/>
<path d="M256 123H251V153H256V123Z" fill="#535461"/>
<path d="M256 112H251V123H256V112Z" fill="#4D8AF0"/>
<path d="M264 127H259V158H264V127Z" fill="#535461"/>
<path d="M264 118H259V127H264V118Z" fill="#F55F44"/>
<path d="M241 129H267V153.699C267 155.635 266.3 157.492 265.055 158.862C263.809 160.231 262.12 161 260.359 161H247.641C245.88 161 244.191 160.231 242.945 158.862C241.7 157.492 241 155.635 241 153.699V129Z" fill="#3787FF"/>
<g opacity="0.1">
<path opacity="0.1" d="M241.23 129.479V130.69H266.323V154.762C266.325 156.353 265.823 157.898 264.897 159.149C265.698 158.484 266.345 157.635 266.789 156.664C267.234 155.694 267.465 154.629 267.464 153.55V129.479H241.23Z" fill="black"/>
</g>
</g>
<defs>
<linearGradient id="paint0_linear" x1="152.357" y1="164.023" x2="152.357" y2="22" gradientUnits="userSpaceOnUse">
<stop stop-color="#808080" stop-opacity="0.25"/>
<stop offset="0.54" stop-color="#808080" stop-opacity="0.12"/>
<stop offset="1" stop-color="#808080" stop-opacity="0.1"/>
</linearGradient>
<linearGradient id="paint1_linear" x1="45810.5" y1="14761.3" x2="45810.5" y2="4086.83" gradientUnits="userSpaceOnUse">
<stop stop-color="#808080" stop-opacity="0.25"/>
<stop offset="0.54" stop-color="#808080" stop-opacity="0.12"/>
<stop offset="1" stop-color="#808080" stop-opacity="0.1"/>
</linearGradient>
<linearGradient id="paint2_linear" x1="6457.69" y1="43875.7" x2="14795" y2="43875.7" gradientUnits="userSpaceOnUse">
<stop stop-color="#808080" stop-opacity="0.25"/>
<stop offset="0.54" stop-color="#808080" stop-opacity="0.12"/>
<stop offset="1" stop-color="#808080" stop-opacity="0.1"/>
</linearGradient>
<linearGradient id="paint3_linear" x1="26301.6" y1="29953.8" x2="29039" y2="29953.8" gradientUnits="userSpaceOnUse">
<stop stop-color="#808080" stop-opacity="0.25"/>
<stop offset="0.54" stop-color="#808080" stop-opacity="0.12"/>
<stop offset="1" stop-color="#808080" stop-opacity="0.1"/>
</linearGradient>
<clipPath id="clip0">
<rect width="306" height="174" fill="white"/>
</clipPath>
</defs>
</svg>
