<svg width="306" height="174" viewBox="0 0 306 174" fill="none" xmlns="http://www.w3.org/2000/svg">
<path opacity="0.1" d="M290 113.908C290.003 118.094 289.451 122.261 288.359 126.29C287.304 130.174 285.751 133.892 283.744 137.345C283.744 149.852 275.644 160.662 263.886 165.804C258.973 167.932 253.703 169.018 248.383 169H68.0146C58.3743 169 49.4405 166.289 42.1139 161.67C40.0171 160.354 38.028 158.861 36.1669 157.204C28.0235 149.909 22.9747 139.828 22.9747 128.694C18.4043 121.359 15.981 112.796 16.0001 104.049C16.0001 85.735 26.3925 69.9873 41.2804 63.0346C43.2574 62.1118 45.3002 61.3506 47.3903 60.7578C48.1296 60.5481 48.8769 60.36 49.6321 60.1936C51.6455 59.7467 53.6876 59.4547 55.7421 59.3198C56.4845 59.2716 57.231 59.2441 57.9815 59.2374H58.3934C59.2221 59.2374 60.0437 59.2674 60.8604 59.3173L61.1286 58.843C61.4576 58.2705 61.7945 57.7038 62.1394 57.1429C62.7621 56.121 63.4152 55.1141 64.0986 54.1222C64.8139 53.0753 65.5604 52.0451 66.338 51.0316L66.5368 50.7819C66.9775 50.2094 67.4278 49.6435 67.8876 49.0843C69.3247 47.3384 70.8416 45.645 72.4383 44.004C89.7094 26.3589 116.767 15 147.185 15C170.853 15 192.488 21.8778 209.06 33.2417C215.338 29.5386 222.43 27.5955 229.643 27.6022C253.053 27.6022 272.037 47.6663 272.037 72.4163C272.033 73.9823 271.953 75.5471 271.797 77.1047C277.44 81.2683 282.039 86.7854 285.208 93.1907C288.376 99.5959 290.019 106.701 290 113.908Z" fill="#3787FF"/>
<path opacity="0.2" d="M73 44V49H68C69.5667 47.2834 71.2333 45.6167 73 44Z" fill="#3787FF"/>
<path opacity="0.2" d="M80 42H76V49H80V42Z" fill="#3787FF"/>
<path opacity="0.2" d="M90 42H83V49H90V42Z" fill="#3787FF"/>
<path opacity="0.2" d="M97 42H92V49H97V42Z" fill="#3787FF"/>
<path opacity="0.2" d="M106 42H100V49H106V42Z" fill="#3787FF"/>
<path opacity="0.2" d="M114 42H109V49H114V42Z" fill="#3787FF"/>
<path d="M123 42H116V49H123V42Z" fill="#3787FF"/>
<path opacity="0.2" d="M130 42H125V49H130V42Z" fill="#3787FF"/>
<path opacity="0.2" d="M140 42H133V49H140V42Z" fill="#3787FF"/>
<path opacity="0.2" d="M147 42H142V49H147V42Z" fill="#3787FF"/>
<path d="M156 42H149V49H156V42Z" fill="#3787FF"/>
<path opacity="0.2" d="M164 42H159V49H164V42Z" fill="#3787FF"/>
<path opacity="0.2" d="M173 42H166V49H173V42Z" fill="#3787FF"/>
<path opacity="0.2" d="M180 42H175V49H180V42Z" fill="#3787FF"/>
<path opacity="0.2" d="M190 42H183V49H190V42Z" fill="#3787FF"/>
<path opacity="0.2" d="M197 42H192V49H197V42Z" fill="#3787FF"/>
<path opacity="0.2" d="M206 42H199V49H206V42Z" fill="#3787FF"/>
<path d="M214 42H209V49H214V42Z" fill="#3787FF"/>
<path d="M223 42H216V49H223V42Z" fill="#3787FF"/>
<path opacity="0.2" d="M230 42H225V49H230V42Z" fill="#3787FF"/>
<path opacity="0.2" d="M240 42H233V49H240V42Z" fill="#3787FF"/>
<path d="M247 42H242V49H247V42Z" fill="#3787FF"/>
<path d="M256 42H249V49H256V42Z" fill="#3787FF"/>
<path d="M64 53V57H62C62.6357 55.638 63.3024 54.3047 64 53Z" fill="#3787FF"/>
<path opacity="0.2" d="M73 49H66V57H73V49Z" fill="#3787FF"/>
<path d="M80 49H76V57H80V49Z" fill="#3787FF"/>
<path opacity="0.2" d="M90 49H83V57H90V49Z" fill="#3787FF"/>
<path opacity="0.7" d="M97 49H92V57H97V49Z" fill="#3787FF"/>
<path opacity="0.2" d="M106 49H100V57H106V49Z" fill="#3787FF"/>
<path opacity="0.4" d="M114 49H109V57H114V49Z" fill="#3787FF"/>
<path d="M123 49H116V57H123V49Z" fill="#3787FF"/>
<path opacity="0.4" d="M130 49H125V57H130V49Z" fill="#3787FF"/>
<path opacity="0.2" d="M140 49H133V57H140V49Z" fill="#3787FF"/>
<path opacity="0.4" d="M147 49H142V57H147V49Z" fill="#3787FF"/>
<path d="M156 49H149V57H156V49Z" fill="#3787FF"/>
<path opacity="0.4" d="M164 49H159V57H164V49Z" fill="#3787FF"/>
<path opacity="0.4" d="M173 49H166V57H173V49Z" fill="#3787FF"/>
<path opacity="0.2" d="M180 49H175V57H180V49Z" fill="#3787FF"/>
<path opacity="0.4" d="M190 49H183V57H190V49Z" fill="#3787FF"/>
<path opacity="0.4" d="M197 49H192V57H197V49Z" fill="#3787FF"/>
<path opacity="0.2" d="M206 49H199V57H206V49Z" fill="#3787FF"/>
<path opacity="0.2" d="M214 49H209V57H214V49Z" fill="#3787FF"/>
<path opacity="0.4" d="M223 49H216V57H223V49Z" fill="#3787FF"/>
<path opacity="0.2" d="M230 49H225V57H230V49Z" fill="#3787FF"/>
<path d="M240 49H233V57H240V49Z" fill="#3787FF"/>
<path d="M247 49H242V57H247V49Z" fill="#3787FF"/>
<path d="M256 49H249V57H256V49Z" fill="#3787FF"/>
<path opacity="0.2" d="M47 61V66H42V63.5575C43.6178 62.5209 45.2895 61.6658 47 61Z" fill="#3787FF"/>
<path opacity="0.2" d="M56 59V66H50V60.0386L56 59Z" fill="#3787FF"/>
<path d="M64 59H59V66H64V59Z" fill="#3787FF"/>
<path opacity="0.7" d="M73 59H66V66H73V59Z" fill="#3787FF"/>
<path d="M80 59H76V66H80V59Z" fill="#3787FF"/>
<path opacity="0.7" d="M90 59H83V66H90V59Z" fill="#3787FF"/>
<path opacity="0.7" d="M97 59H92V66H97V59Z" fill="#3787FF"/>
<path opacity="0.2" d="M106 59H100V66H106V59Z" fill="#3787FF"/>
<path opacity="0.4" d="M114 59H109V66H114V59Z" fill="#3787FF"/>
<path opacity="0.4" d="M123 59H116V66H123V59Z" fill="#3787FF"/>
<path d="M130 59H125V66H130V59Z" fill="#3787FF"/>
<path opacity="0.2" d="M140 59H133V66H140V59Z" fill="#3787FF"/>
<path opacity="0.4" d="M147 59H142V66H147V59Z" fill="#3787FF"/>
<path d="M156 59H149V66H156V59Z" fill="#3787FF"/>
<path opacity="0.2" d="M164 59H159V66H164V59Z" fill="#3787FF"/>
<path opacity="0.4" d="M173 59H166V66H173V59Z" fill="#3787FF"/>
<path opacity="0.2" d="M180 59H175V66H180V59Z" fill="#3787FF"/>
<path d="M190 59H183V66H190V59Z" fill="#3787FF"/>
<path opacity="0.2" d="M197 59H192V66H197V59Z" fill="#3787FF"/>
<path opacity="0.7" d="M206 59H199V66H206V59Z" fill="#3787FF"/>
<path opacity="0.7" d="M214 59H209V66H214V59Z" fill="#3787FF"/>
<path opacity="0.4" d="M223 59H216V66H223V59Z" fill="#3787FF"/>
<path opacity="0.2" d="M230 59H225V66H230V59Z" fill="#3787FF"/>
<path d="M240 59H233V66H240V59Z" fill="#3787FF"/>
<path d="M247 59H242V66H247V59Z" fill="#3787FF"/>
<path d="M256 59H249V66H256V59Z" fill="#3787FF"/>
<path opacity="0.2" d="M47 66H42V73H47V66Z" fill="#3787FF"/>
<path opacity="0.2" d="M56 66H50V73H56V66Z" fill="#3787FF"/>
<path opacity="0.2" d="M64 66H59V73H64V66Z" fill="#3787FF"/>
<path opacity="0.2" d="M73 66H66V73H73V66Z" fill="#3787FF"/>
<path d="M80 66H76V73H80V66Z" fill="#3787FF"/>
<path opacity="0.7" d="M90 66H83V73H90V66Z" fill="#3787FF"/>
<path opacity="0.7" d="M97 66H92V73H97V66Z" fill="#3787FF"/>
<path opacity="0.2" d="M106 66H100V73H106V66Z" fill="#3787FF"/>
<path opacity="0.2" d="M114 66H109V73H114V66Z" fill="#3787FF"/>
<path opacity="0.4" d="M123 66H116V73H123V66Z" fill="#3787FF"/>
<path opacity="0.4" d="M130 66H125V73H130V66Z" fill="#3787FF"/>
<path d="M140 66H133V73H140V66Z" fill="#3787FF"/>
<path opacity="0.2" d="M147 66H142V73H147V66Z" fill="#3787FF"/>
<path opacity="0.4" d="M156 66H149V73H156V66Z" fill="#3787FF"/>
<path opacity="0.4" d="M164 66H159V73H164V66Z" fill="#3787FF"/>
<path opacity="0.4" d="M173 66H166V73H173V66Z" fill="#3787FF"/>
<path opacity="0.4" d="M180 66H175V73H180V66Z" fill="#3787FF"/>
<path opacity="0.2" d="M190 66H183V73H190V66Z" fill="#3787FF"/>
<path opacity="0.2" d="M197 66H192V73H197V66Z" fill="#3787FF"/>
<path opacity="0.2" d="M206 66H199V73H206V66Z" fill="#3787FF"/>
<path opacity="0.2" d="M214 66H209V73H214V66Z" fill="#3787FF"/>
<path opacity="0.7" d="M223 66H216V73H223V66Z" fill="#3787FF"/>
<path opacity="0.7" d="M230 66H225V73H230V66Z" fill="#3787FF"/>
<path opacity="0.4" d="M240 66H233V73H240V66Z" fill="#3787FF"/>
<path opacity="0.2" d="M247 66H242V73H247V66Z" fill="#3787FF"/>
<path d="M256 66H249V73H256V66Z" fill="#3787FF"/>
<path opacity="0.2" d="M47 75H42V82H47V75Z" fill="#3787FF"/>
<path opacity="0.2" d="M56 75H50V82H56V75Z" fill="#3787FF"/>
<path opacity="0.4" d="M64 75H59V82H64V75Z" fill="#3787FF"/>
<path opacity="0.2" d="M73 75H66V82H73V75Z" fill="#3787FF"/>
<path opacity="0.2" d="M80 75H76V82H80V75Z" fill="#3787FF"/>
<path opacity="0.7" d="M90 75H83V82H90V75Z" fill="#3787FF"/>
<path opacity="0.7" d="M97 75H92V82H97V75Z" fill="#3787FF"/>
<path opacity="0.2" d="M106 75H100V82H106V75Z" fill="#3787FF"/>
<path opacity="0.2" d="M114 75H109V82H114V75Z" fill="#3787FF"/>
<path opacity="0.4" d="M123 75H116V82H123V75Z" fill="#3787FF"/>
<path d="M130 75H125V82H130V75Z" fill="#3787FF"/>
<path opacity="0.2" d="M140 75H133V82H140V75Z" fill="#3787FF"/>
<path d="M147 75H142V82H147V75Z" fill="#3787FF"/>
<path d="M156 75H149V82H156V75Z" fill="#3787FF"/>
<path d="M164 75H159V82H164V75Z" fill="#3787FF"/>
<path opacity="0.2" d="M173 75H166V82H173V75Z" fill="#3787FF"/>
<path d="M180 75H175V82H180V75Z" fill="#3787FF"/>
<path opacity="0.2" d="M190 75H183V82H190V75Z" fill="#3787FF"/>
<path opacity="0.2" d="M197 75H192V82H197V75Z" fill="#3787FF"/>
<path opacity="0.2" d="M206 75H199V82H206V75Z" fill="#3787FF"/>
<path opacity="0.2" d="M214 75H209V82H214V75Z" fill="#3787FF"/>
<path opacity="0.2" d="M223 75H216V82H223V75Z" fill="#3787FF"/>
<path opacity="0.7" d="M230 75H225V82H230V75Z" fill="#3787FF"/>
<path opacity="0.2" d="M240 75H233V82H240V75Z" fill="#3787FF"/>
<path opacity="0.2" d="M247 75H242V82H247V75Z" fill="#3787FF"/>
<path d="M256 75H249V82H256V75Z" fill="#3787FF"/>
<path opacity="0.2" d="M47 83H42V89H47V83Z" fill="#3787FF"/>
<path opacity="0.2" d="M56 83H50V89H56V83Z" fill="#3787FF"/>
<path opacity="0.2" d="M64 83H59V89H64V83Z" fill="#3787FF"/>
<path opacity="0.4" d="M73 83H66V89H73V83Z" fill="#3787FF"/>
<path opacity="0.2" d="M80 83H76V89H80V83Z" fill="#3787FF"/>
<path opacity="0.2" d="M90 83H83V89H90V83Z" fill="#3787FF"/>
<path opacity="0.7" d="M97 83H92V89H97V83Z" fill="#3787FF"/>
<path opacity="0.2" d="M106 83H100V89H106V83Z" fill="#3787FF"/>
<path opacity="0.2" d="M114 83H109V89H114V83Z" fill="#3787FF"/>
<path opacity="0.2" d="M123 83H116V89H123V83Z" fill="#3787FF"/>
<path d="M130 83H125V89H130V83Z" fill="#3787FF"/>
<path opacity="0.2" d="M140 83H133V89H140V83Z" fill="#3787FF"/>
<path d="M147 83H142V89H147V83Z" fill="#3787FF"/>
<path d="M156 83H149V89H156V83Z" fill="#3787FF"/>
<path opacity="0.2" d="M164 83H159V89H164V83Z" fill="#3787FF"/>
<path opacity="0.2" d="M173 83H166V89H173V83Z" fill="#3787FF"/>
<path opacity="0.2" d="M180 83H175V89H180V83Z" fill="#3787FF"/>
<path opacity="0.2" d="M190 83H183V89H190V83Z" fill="#3787FF"/>
<path opacity="0.2" d="M197 83H192V89H197V83Z" fill="#3787FF"/>
<path opacity="0.2" d="M206 83H199V89H206V83Z" fill="#3787FF"/>
<path opacity="0.2" d="M214 83H209V89H214V83Z" fill="#3787FF"/>
<path opacity="0.2" d="M223 83H216V89H223V83Z" fill="#3787FF"/>
<path opacity="0.2" d="M230 83H225V89H230V83Z" fill="#3787FF"/>
<path opacity="0.2" d="M240 83H233V89H240V83Z" fill="#3787FF"/>
<path opacity="0.4" d="M247 83H242V89H247V83Z" fill="#3787FF"/>
<path d="M256 83H249V89H256V83Z" fill="#3787FF"/>
<path opacity="0.7" d="M47 91H42V98H47V91Z" fill="#3787FF"/>
<path opacity="0.7" d="M56 91H50V98H56V91Z" fill="#3787FF"/>
<path opacity="0.7" d="M64 91H59V98H64V91Z" fill="#3787FF"/>
<path opacity="0.7" d="M73 91H66V98H73V91Z" fill="#3787FF"/>
<path opacity="0.7" d="M80 91H76V98H80V91Z" fill="#3787FF"/>
<path opacity="0.2" d="M90 91H83V98H90V91Z" fill="#3787FF"/>
<path opacity="0.2" d="M97 91H92V98H97V91Z" fill="#3787FF"/>
<path opacity="0.2" d="M106 91H100V98H106V91Z" fill="#3787FF"/>
<path opacity="0.2" d="M114 91H109V98H114V91Z" fill="#3787FF"/>
<path opacity="0.2" d="M123 91H116V98H123V91Z" fill="#3787FF"/>
<path opacity="0.2" d="M130 91H125V98H130V91Z" fill="#3787FF"/>
<path d="M140 91H133V98H140V91Z" fill="#3787FF"/>
<path opacity="0.2" d="M147 91H142V98H147V91Z" fill="#3787FF"/>
<path opacity="0.2" d="M156 91H149V98H156V91Z" fill="#3787FF"/>
<path opacity="0.2" d="M164 91H159V98H164V91Z" fill="#3787FF"/>
<path d="M173 91H166V98H173V91Z" fill="#3787FF"/>
<path opacity="0.2" d="M180 91H175V98H180V91Z" fill="#3787FF"/>
<path opacity="0.2" d="M190 91H183V98H190V91Z" fill="#3787FF"/>
<path opacity="0.2" d="M197 91H192V98H197V91Z" fill="#3787FF"/>
<path opacity="0.2" d="M206 91H199V98H206V91Z" fill="#3787FF"/>
<path opacity="0.2" d="M214 91H209V98H214V91Z" fill="#3787FF"/>
<path opacity="0.2" d="M223 91H216V98H223V91Z" fill="#3787FF"/>
<path opacity="0.2" d="M230 91H225V98H230V91Z" fill="#3787FF"/>
<path opacity="0.2" d="M240 91H233V98H240V91Z" fill="#3787FF"/>
<path opacity="0.2" d="M247 91H242V98H247V91Z" fill="#3787FF"/>
<path d="M256 91H249V98H256V91Z" fill="#3787FF"/>
<path d="M191.5 115C196.194 115 200 111.194 200 106.5C200 101.806 196.194 98 191.5 98C186.806 98 183 101.806 183 106.5C183 111.194 186.806 115 191.5 115Z" fill="#767D9F"/>
<path d="M192.199 94.9799C192.973 98.9501 193.63 102.95 194.169 106.979C194.332 108.176 194.476 109.439 194.107 110.571C193.798 111.515 193.168 112.252 192.675 113.078C192.181 113.904 191.807 114.963 192.107 115.909C192.408 116.856 193.284 117.373 194.12 117.64C196.513 118.398 199.064 117.846 201.446 117.026C202.525 116.699 203.559 116.196 204.518 115.53C205.528 114.777 206.355 113.732 207.116 112.655C210.587 107.706 212.86 101.766 215 95.8635C213.625 96.0106 212.24 95.7711 210.96 95.1647C209.679 94.5583 208.54 93.6025 207.636 92.3762C206.76 91.1658 206.117 89.4796 206.611 88C205.163 88.9333 203.444 88.996 201.885 89.6339C200.918 90.0679 199.987 90.6061 199.104 91.2416C198.04 91.9649 196.981 92.7021 195.928 93.4532C194.725 94.3055 193.598 95.0636 192.199 94.9799Z" fill="#AE6E79"/>
<path d="M209.45 101.21C207.968 104.244 206.04 107.159 203.287 108.966C200.534 110.772 196.828 111.262 194.071 109.476C192.713 108.603 191.684 107.277 190.498 106.159C189.312 105.042 187.831 104.085 186.237 104.231C184.481 104.392 183.106 105.833 181.93 107.213C180.145 109.31 178.421 111.496 177.157 113.978C174.732 118.749 174.157 124.325 174.264 129.734C174.37 135.142 175.115 140.522 175.132 145.93C175.156 152.584 174.084 159.183 173 165.737C182.968 164.446 192.948 167.267 202.938 168.336C209.331 169.028 215.772 169.012 222.199 168.995C223.329 168.995 224.532 168.964 225.473 168.306C226.049 167.864 226.514 167.283 226.829 166.612C227.717 164.89 228.073 162.926 228.321 160.984C228.949 156.081 228.968 151.117 228.985 146.168C229.029 134.178 229.07 122.144 227.622 110.249C227.266 107.323 226.81 104.381 225.743 101.644C224.676 98.9067 222.934 96.3888 220.499 94.922C218.935 93.9781 215.309 92.3352 213.466 93.2868C211.397 94.348 210.442 99.1797 209.45 101.21Z" fill="#767D9F"/>
<path d="M210.065 134.87C209.698 127.522 208.204 119.679 211.384 113.156C212.165 111.555 209.362 109.556 210.229 108.005C211.286 106.114 212.088 104.072 212.61 101.941C212.79 101.209 212.935 100.433 212.764 99.6984C212.449 98.3579 211.211 97.5597 210.16 96.7438C209 95.8417 208.403 93.0923 208.029 91.6049C207.655 90.1174 211.005 91.9089 212.352 91.3793C214.223 90.647 216.6 91.1082 218.466 91.8507C219.507 92.2612 220.639 92.2966 221.75 92.327C223.907 92.3879 226.071 92.4461 228.211 92.1623C229.172 92.0331 230.136 91.838 231.102 91.8963C233.567 92.0458 235.709 93.85 237.168 95.9836C238.626 98.1172 239.555 100.603 240.75 102.914C241.747 104.84 242.936 106.659 243.786 108.664C244.539 110.437 245.014 112.343 245.486 114.238L246.7 119.101C246.913 119.797 247.014 120.526 246.999 121.257C246.937 122.035 246.615 122.76 246.288 123.452C245.053 126.016 243.571 128.435 241.868 130.671C239.313 134.024 236.211 137.047 234.694 141.061C234.102 142.624 233.773 144.286 233.472 145.944C232.26 152.572 231.398 159.268 230.891 166C228.125 164.63 225.225 163.592 222.244 162.906C220.759 162.566 219.257 162.312 217.746 162.146C216.422 161.999 214.715 162.278 213.456 161.892C211.348 161.251 211.116 157.438 210.797 155.441C210.285 152.261 210.184 149.025 210.165 145.812C210.141 142.158 210.247 138.511 210.065 134.87Z" fill="#4C4981"/>
<path d="M162.86 121.366C163.828 127.349 164.895 133.349 167 138.971C166.947 139.026 166.894 139.076 166.841 139.125C166.655 139.297 166.462 139.459 166.259 139.624C165.788 139.983 165.27 140.287 164.879 140.756C164.731 140.935 164.614 141.142 164.534 141.367C164.462 141.542 164.425 141.732 164.425 141.924C164.425 142.116 164.462 142.306 164.534 142.481C163.437 143.007 162.163 142.845 160.932 142.795C159.872 142.753 158.844 142.795 157.993 143.426C156.81 144.308 156.454 146.004 156.263 147.544C156.193 148.106 156.132 148.669 156.081 149.232C156.032 149.755 155.992 150.281 155.962 150.807C155.857 152.55 155.843 154.298 155.918 156.043C155.93 156.362 155.946 156.681 155.966 157C152.208 156.903 148.783 154.779 145.542 152.715C144.802 152.243 144.038 151.747 143.557 150.97C143.114 150.206 142.927 149.3 143.026 148.404C143.026 148.277 143.047 148.155 143.063 148.025C143.166 147.286 143.342 146.56 143.589 145.861C144.603 142.886 146.098 140.13 148.003 137.722C148.827 136.68 149.754 135.66 150.138 134.351C150.306 133.78 150.368 133.175 150.538 132.606C151.302 130.143 154.057 128.979 155 126.588C155.23 126.017 155.336 125.392 155.621 124.843C155.878 124.387 156.209 123.986 156.599 123.659C156.767 123.507 156.942 123.36 157.114 123.213C158.73 121.84 160.287 120.39 161.786 118.863C162.065 118.578 162.341 118.291 162.614 118C162.577 119.128 162.66 120.257 162.86 121.366Z" fill="#4C4981"/>
<path d="M187.188 103.41C186.832 103.788 186.446 104.143 186.067 104.495L185.966 104.587L185.565 104.96C184.837 105.59 184.208 106.326 183.697 107.142L183.655 107.212C182.393 109.479 182.86 112.27 183.212 114.844C183.648 118.053 183.844 121.29 183.798 124.528C183.734 128.997 183.209 133.437 183.199 137.901C183.199 138.914 183.222 139.925 183.266 140.938C183.338 142.584 183.462 144.228 183.61 145.871C183.771 147.674 183.964 149.474 184.145 151.274C184.288 152.667 184.424 154.058 184.538 155.448C184.595 156.168 184.649 156.886 184.694 157.606C184.746 158.45 184.788 159.297 184.813 160.141C184.83 160.677 184.84 161.211 184.84 161.747C184.84 162.053 184.84 162.356 184.84 162.659C184.84 163.24 184.824 163.819 184.793 164.397C184.76 165.14 184.71 165.885 184.642 166.631C184.565 167.443 184.429 168.33 183.86 168.901C183.825 168.935 183.788 168.968 183.751 169L182.949 168.901C177.423 168.237 171.843 168.137 166.296 168.603C166.417 167.763 166.528 166.927 166.637 166.085C166.687 165.688 166.736 165.288 166.783 164.888C166.838 164.431 166.89 163.975 166.939 163.518C166.996 163.021 167.048 162.524 167.098 162.028C167.226 160.748 167.339 159.468 167.437 158.187C167.58 156.318 167.689 154.446 167.763 152.57C167.799 151.675 167.828 150.778 167.847 149.881C167.875 148.769 167.889 147.656 167.887 146.542C167.887 145.459 167.878 144.375 167.86 143.289C167.86 142.932 167.845 142.574 167.815 142.219C167.794 141.899 167.75 141.581 167.684 141.268C167.5 140.545 167.252 139.84 166.942 139.162C166.887 139.033 166.835 138.914 166.783 138.778C166.754 138.711 166.726 138.641 166.699 138.574C168.124 137.3 169.139 135.594 170.114 133.916C171.695 131.212 173.314 128.389 173.578 125.265C173.843 122.142 172.297 118.633 169.322 117.68C168.513 117.432 167.657 117.362 166.823 117.216C166.036 117.077 164.395 116.761 163.485 116.195C162.99 116.705 162.495 117.206 162 117.697C162.03 116.947 162.213 116.211 162.537 115.535L162.888 115.552C162.86 115.473 162.846 115.388 162.849 115.304C162.849 115.038 163.032 114.738 163.423 114.405C164.588 113.412 166.422 113.191 167.157 111.847C167.464 111.289 167.516 110.623 167.763 110.037C168.473 108.366 170.512 107.751 171.74 106.415C172.967 105.079 173.274 103.187 174.266 101.697C175.008 100.609 176.036 99.7496 177.236 99.2143C177.335 99.1671 177.436 99.1199 177.538 99.0777C179.591 98.1962 182.031 97.9951 184.159 98.0001C184.986 98.0001 187.129 98.0249 188.178 98.4445C188.348 98.5055 188.504 98.6011 188.636 98.7251C189.754 99.9467 188.015 102.527 187.188 103.41Z" fill="#4C4981"/>
<path d="M163.229 115.627C164.974 115.063 166.805 114.877 168.618 115.08C170.43 115.282 172.187 115.87 173.786 116.809C175.413 117.78 176.872 119.134 177.766 120.882C179.11 123.503 179.052 126.663 178.957 129.656C178.909 131.153 178.848 132.704 178.234 134.049C177.522 135.604 176.181 136.672 174.812 137.546C173.954 138.134 173.015 138.57 172.029 138.839C170.511 139.194 168.934 138.893 167.405 138.597C165.743 138.267 163.958 137.869 162.804 136.539C162.126 135.767 161.756 134.764 161.39 133.784C160.864 132.368 160.337 130.954 159.809 129.541C158.894 127.088 158.584 125.047 159.793 122.656C160.342 121.566 161.013 120.547 161.555 119.45C161.826 118.892 162.797 115.77 163.229 115.627Z" fill="#4C4981"/>
<path d="M264 158.44V165.766C259.082 167.854 253.806 168.92 248.481 168.902H183.823C183.79 168.936 183.754 168.968 183.718 169L182.941 168.902H67.9264C58.2765 168.902 49.3339 166.241 42 161.709V150.524L97.3148 144H97.3579L129.571 146.788L137.907 147.523L142.236 147.898L151.198 148.675L155.809 149.074L162.522 149.657L163.466 149.738L168.304 150.157L174.869 150.708L184.099 151.507L199.486 152.842L210.311 153.78L228.086 155.322L231.466 155.613L231.831 155.645L232.147 155.672L236.611 156.059L241.512 156.485L242.08 156.534L264 158.44Z" fill="#504F60"/>
<path d="M198 159.708L129.65 147L127 161.598L158.331 165.684L167.978 167L194.516 161.307L198 159.708Z" fill="#9C9CA1"/>
<path d="M162 165.497L197.543 158.024C197.72 157.986 197.904 157.993 198.079 158.043C198.254 158.094 198.417 158.187 198.557 158.316C198.696 158.446 198.808 158.608 198.885 158.791C198.961 158.975 199.001 159.175 199 159.377C199.001 159.699 198.901 160.01 198.717 160.257C198.534 160.504 198.279 160.672 197.996 160.73L163.286 168L162 165.497Z" fill="#9C9CA1"/>
<path d="M177.96 143.097C179.039 142.986 180.131 142.799 181.102 142.273C182.298 141.618 183.228 140.488 184.335 139.657C186.77 137.814 190.027 137.567 192.818 138.625C195.608 139.683 197.938 141.949 199.568 144.655C200.652 146.458 201.465 148.758 200.7 150.748C200.437 151.356 200.106 151.925 199.714 152.443L197.72 155.311C197.341 155.914 196.885 156.454 196.366 156.914C195.62 157.512 194.692 157.756 193.779 157.904C191.352 158.293 188.881 158.072 186.435 158.251C182.233 158.559 178.13 160.049 173.919 159.999C171.499 159.97 169.11 159.433 166.745 158.896L156.278 156.527C154.456 156.117 152.397 155.517 151.538 153.698C151.153 152.879 151.081 151.932 151.036 151.011C150.912 148.474 151.036 145.652 152.633 143.823C154.135 142.107 156.51 141.565 158.303 140.296C160.498 138.741 161.223 139.244 163.538 140.412C168.054 142.663 173.023 143.588 177.96 143.097Z" fill="#AE6E79"/>
<path opacity="0.05" d="M177.96 143.097C179.039 142.986 180.131 142.799 181.102 142.273C182.298 141.618 183.228 140.488 184.335 139.657C186.77 137.814 190.027 137.567 192.818 138.625C195.608 139.683 197.938 141.949 199.568 144.655C200.652 146.458 201.465 148.758 200.7 150.748C200.437 151.356 200.106 151.925 199.714 152.443L197.72 155.311C197.341 155.914 196.885 156.454 196.366 156.914C195.62 157.512 194.692 157.756 193.779 157.904C191.352 158.293 188.881 158.072 186.435 158.251C182.233 158.559 178.13 160.049 173.919 159.999C171.499 159.97 169.11 159.433 166.745 158.896L156.278 156.527C154.456 156.117 152.397 155.517 151.538 153.698C151.153 152.879 151.081 151.932 151.036 151.011C150.912 148.474 151.036 145.652 152.633 143.823C154.135 142.107 156.51 141.565 158.303 140.296C160.498 138.741 161.223 139.244 163.538 140.412C168.054 142.663 173.023 143.588 177.96 143.097Z" fill="black"/>
<path d="M220.358 139.342C217.448 140.587 214.521 141.838 211.474 142.58C206.365 143.825 201.019 143.628 195.951 145.052C193.273 145.807 190.612 147.023 187.861 146.777C186.631 146.667 185.444 146.253 184.247 145.938C177.525 144.103 169.883 144.698 164.423 149.417C162.556 151.029 161.027 153.04 159.641 155.185C159.344 155.648 159.144 156.178 159.054 156.737C158.964 157.296 158.987 157.87 159.121 158.418C159.254 158.966 159.496 159.474 159.828 159.907C160.16 160.34 160.574 160.686 161.042 160.921C163.165 162.001 165.439 162.673 167.767 162.906C170.878 163.21 174.003 162.722 177.098 162.235C181.69 161.514 186.285 160.79 190.866 159.98C192.51 159.689 194.155 159.387 195.809 159.157C207.711 157.492 219.829 159.516 231.763 158.126C232.969 157.985 234.196 157.801 235.293 157.232C238.071 155.79 239.445 151.989 238.872 148.649C238.298 145.309 236.085 142.532 233.421 140.828C231.189 139.394 228.782 138.815 226.296 138.207C223.988 137.612 222.58 138.398 220.358 139.342Z" fill="#AE6E79"/>
<path opacity="0.1" d="M245.495 120.658C246.827 122.472 247.11 124.906 246.966 127.178C246.822 129.45 246.303 131.697 246.226 133.978C246.12 137.107 246.846 140.226 246.723 143.345C246.637 145.527 246.139 147.666 245.55 149.76C244.855 152.232 243.85 154.889 241.655 156.076C238.741 157.653 232.63 156.765 229.564 158C229.843 156.193 232.517 153.577 232.796 151.77C232.988 150.52 233.183 149.236 232.976 147.983C232.712 146.387 231.81 144.97 230.74 143.79C229.038 141.913 226.816 140.501 224.376 140.041C221.936 139.581 215.962 139.959 214.009 141.561C213.769 139.906 218.241 138.312 219.813 137.954C220.597 137.772 221.496 137.874 222.123 137.357C223.326 136.377 222.453 134.426 222.511 132.859C222.556 131.609 223.258 130.465 223.4 129.215C223.641 127.216 222.386 125.179 222.878 123.217C223.061 122.492 223.467 121.855 223.749 121.165C224.605 119.053 224.23 116.644 223.773 114.4C223.489 112.991 223.213 111.401 223.968 110.199C224.667 109.077 226.653 113.073 227.925 112.888C232.125 112.276 235.926 109.039 239.318 111.689C241.047 113.038 241.273 114.438 241.963 116.364C242.634 118.199 244.372 119.138 245.495 120.658Z" fill="black"/>
<path d="M245.54 120.425C246.832 122.25 247.107 124.7 246.967 126.986C246.827 129.272 246.324 131.532 246.249 133.828C246.146 136.977 246.851 140.115 246.732 143.254C246.648 145.449 246.165 147.602 245.594 149.709C244.92 152.196 243.946 154.869 241.817 156.064C238.992 157.65 233.065 156.758 230.093 158C230.363 156.182 232.956 153.549 233.226 151.731C233.413 150.473 233.601 149.181 233.401 147.921C233.145 146.314 232.27 144.888 231.233 143.701C229.582 141.813 227.428 140.392 225.062 139.929C222.695 139.466 216.902 139.846 215.009 141.458C214.776 139.793 219.112 138.189 220.637 137.829C221.397 137.646 222.269 137.749 222.877 137.228C224.043 136.242 223.197 134.278 223.253 132.702C223.297 131.444 223.978 130.293 224.115 129.035C224.348 127.023 223.131 124.974 223.609 123C223.787 122.271 224.181 121.629 224.453 120.935C225.283 118.81 224.92 116.386 224.477 114.128C224.202 112.71 223.933 111.11 224.665 109.901C225.344 108.771 226.67 108.344 227.904 108.155C232.033 107.553 236.217 108.717 239.56 111.399C241.237 112.757 241.456 114.166 242.125 116.104C242.766 117.95 244.452 118.896 245.54 120.425Z" fill="#4C4981"/>
<path d="M89.1028 109.579L101.849 160.667C102.006 161.292 102.334 161.852 102.791 162.27C103.248 162.689 103.812 162.946 104.407 163.008L161.778 168.985C162.246 169.034 162.717 168.961 163.153 168.771C163.589 168.582 163.977 168.282 164.284 167.897C164.591 167.511 164.809 167.052 164.919 166.556C165.028 166.061 165.027 165.544 164.915 165.05L150.956 103.427C150.79 102.694 150.39 102.049 149.827 101.607C149.264 101.164 148.574 100.952 147.881 101.009L91.7121 105.565C91.2808 105.601 90.8623 105.74 90.4863 105.972C90.1103 106.204 89.7862 106.523 89.5369 106.907C89.2877 107.29 89.1196 107.729 89.0446 108.191C88.9695 108.653 88.9894 109.127 89.1028 109.579Z" fill="#9C9CA1"/>
<path d="M204.5 118C208.642 118 212 115.09 212 111.5C212 107.91 208.642 105 204.5 105C200.358 105 197 107.91 197 111.5C197 115.09 200.358 118 204.5 118Z" fill="white"/>
<path d="M210.583 100.101C210.583 100.101 212.122 104.046 207.581 105.705L207 106.58L209.844 109C209.844 109 213.351 103.484 212.971 101.526C212.971 101.526 212.428 99.5367 210.583 100.101Z" fill="white"/>
<path d="M205 118C208.866 118 212 115.09 212 111.5C212 107.91 208.866 105 205 105C201.134 105 198 107.91 198 111.5C198 115.09 201.134 118 205 118Z" fill="#3787FF"/>
<path d="M212.737 101L211.645 99.3049L210.053 99.093C210.393 93.5116 208.851 91.8489 208.851 91.8489L208.493 91.8165L206.934 91.6744L204 88.8127V88C208.122 88.4612 210.4 90.3009 211.631 92.4571C213.806 96.2412 212.737 101 212.737 101Z" fill="#3787FF"/>
<path opacity="0.1" d="M209 91.6324V93L207.264 92.8108L204 89C204 89 209.05 90.2714 209 91.6324Z" fill="black" stroke="#4C4981" stroke-miterlimit="10"/>
<path opacity="0.1" d="M212.805 101L212 99.4107V93C213.593 96.5384 212.805 101 212.805 101Z" fill="black" stroke="#4C4981" stroke-miterlimit="10"/>
<path d="M193.781 114.965C195.434 113.96 195.363 110.569 193.622 107.392C191.881 104.214 189.13 102.454 187.477 103.46C185.824 104.465 185.895 107.856 187.636 111.034C189.376 114.211 192.128 115.971 193.781 114.965Z" fill="white"/>
<path d="M192.051 108.618C193.872 112.078 196.107 114.39 194.378 115.49C192.65 116.589 187.614 116.04 185.793 112.576C183.972 109.112 185.625 104.329 187.354 103.23C189.082 102.13 190.227 105.149 192.051 108.618Z" fill="#3787FF"/>
<path opacity="0.1" d="M207 84.9382C207 95.1545 200.539 105 191.097 105C186.563 105 182.214 103.051 179.008 99.5815C175.801 96.1121 174 91.4065 174 86.5C174 81.5935 175.801 76.8879 179.008 73.4185C182.214 69.9491 186.563 68 191.097 68C200.539 68.0102 207 74.7194 207 84.9382Z" fill="black"/>
<path d="M191.5 105C201.165 105 209 96.7173 209 86.5C209 76.2827 201.165 68 191.5 68C181.835 68 174 76.2827 174 86.5C174 96.7173 181.835 105 191.5 105Z" fill="#AE6E79"/>
<path d="M189.698 78.4702C191.819 79.2927 193.074 81.6028 194.976 82.8894C197.667 84.6942 201.169 84.2275 204.241 83.3354C205.953 82.843 207.743 82.2422 209.428 82.7888C209.676 82.9045 209.95 82.9456 210.218 82.9074C210.585 82.7966 210.766 82.3686 210.886 81.987C212.97 75.4382 212.033 68.0204 208.888 61.9615C208.076 60.399 207.102 58.8882 205.762 57.8027C204.706 56.9493 203.463 56.3898 202.211 55.9128C199.922 55.0464 197.556 54.4304 195.148 54.0745C194.722 53.9931 194.288 53.9783 193.859 54.0307C193.269 54.1312 192.741 54.4664 192.215 54.7655C189.963 56.0382 187.466 56.7533 184.912 56.8565C181.488 56.9931 177.575 56.1423 174.936 58.4576C171.756 61.2344 172.549 66.6514 170.487 70.4208C169.122 72.914 166.491 74.724 166.058 77.5627C165.945 78.4303 165.997 79.3129 166.212 80.159C167.22 84.5266 171.231 87.9093 175.506 87.9892C176.162 88.042 176.82 87.9 177.404 87.5793C177.786 87.3041 178.124 86.9654 178.404 86.5763C181.204 83.0802 184.408 76.4179 189.698 78.4702Z" fill="#444053"/>
<path opacity="0.1" d="M210.884 80.2794C210.764 80.6522 210.583 81.0703 210.216 81.1786C209.948 81.2159 209.674 81.1758 209.426 81.0627C207.742 80.5288 205.942 81.1156 204.243 81.5967C201.169 82.4682 197.66 82.9342 194.98 81.161C193.075 79.9016 191.823 77.6346 189.701 76.8437C184.412 74.8287 181.208 81.3474 178.401 84.7629C178.121 85.1429 177.784 85.4738 177.401 85.7427C176.817 86.056 176.16 86.1948 175.504 86.1432C171.244 86.0651 167.232 82.7604 166.212 78.4936C166.156 78.2417 166.107 77.9898 166.07 77.7379C166.07 77.7606 166.07 77.7807 166.058 77.8034C165.945 78.651 165.998 79.5133 166.212 80.3398C167.219 84.6067 171.232 87.9114 175.504 87.9895C176.16 88.0411 176.817 87.9023 177.401 87.589C177.784 87.3201 178.121 86.9892 178.401 86.6092C181.208 83.1937 184.412 76.6851 189.701 78.69C191.823 79.4935 193.075 81.7504 194.98 83.0073C197.67 84.7704 201.169 84.3145 204.243 83.443C205.954 82.9619 207.742 82.3751 209.426 82.909C209.674 83.0221 209.948 83.0622 210.216 83.0249C210.583 82.9166 210.764 82.4985 210.884 82.1257C211.724 79.5079 212.095 76.7546 211.979 74C211.907 76.1363 211.538 78.2509 210.884 80.2794Z" fill="black"/>
</svg>
