<svg width="306" height="174" viewBox="0 0 306 174" fill="none" xmlns="http://www.w3.org/2000/svg">
<path d="M203.876 102.799L205.704 101.675C205.878 101.565 206.05 101.448 206.226 101.338C202.304 100.667 198.731 98.681 196.097 95.7102C193.462 92.7395 191.926 88.9618 191.741 85.0025C191.606 82.2795 192.123 79.5636 193.248 77.0784C194.296 74.7532 195.843 72.6852 197.781 71.0204C199.718 69.3555 201.998 68.1342 204.461 67.4427L204.37 74.611L208.323 66.8088C208.34 66.8062 208.356 66.8062 208.372 66.8088C210.663 66.7022 212.952 67.0462 215.11 67.821C217.267 68.5958 219.25 69.7863 220.945 71.3246C222.64 72.8628 224.015 74.7186 224.99 76.786C225.966 78.8534 226.523 81.0919 226.629 83.3738C226.644 83.7054 226.629 84.0321 226.629 84.3491C228.005 82.7862 229.253 81.1112 230.081 79.2752C231.755 75.557 231.794 71.3462 231.654 66.2285C231.39 56.0856 230.952 45.8672 230.379 35.678C226.252 35.2214 222.423 33.3137 219.581 30.2976C216.739 27.2815 215.07 23.3547 214.873 19.2227C214.849 18.6888 214.856 18.1646 214.873 17.6428C214.873 17.5136 214.873 17.3819 214.893 17.2527C214.927 16.748 214.974 16.2482 215.052 15.7556C215.052 15.6727 215.081 15.5947 215.096 15.5118C215.168 15.0941 215.254 14.6812 215.353 14.2732C215.392 14.1221 215.429 13.9685 215.471 13.8173C215.593 13.3735 215.715 12.9371 215.884 12.5055C215.936 12.3617 215.997 12.2227 216.051 12.0813C216.175 11.7643 216.31 11.4523 216.452 11.1426C216.528 10.9792 216.601 10.8183 216.682 10.655C216.702 10.6135 216.719 10.5721 216.741 10.5306C218.584 6.90464 221.644 4.03659 225.389 2.42499C229.135 0.813386 233.329 0.560139 237.242 1.70927L237.125 11.0378L241.041 3.3331C244.253 5.16471 246.794 7.97145 248.291 11.3434C249.788 14.7153 250.164 18.4757 249.363 22.0754H249.383C249.356 22.1998 249.317 22.3192 249.287 22.4411C249.233 22.6703 249.175 22.8971 249.111 23.1238C249.028 23.414 248.935 23.6992 248.839 23.9845C248.766 24.1966 248.695 24.4136 248.614 24.6233C248.497 24.9305 248.369 25.2304 248.227 25.5303C248.149 25.7059 248.078 25.8839 247.983 26.057C247.759 26.5056 247.514 26.9445 247.248 27.3736C247.158 27.5223 247.055 27.6637 246.96 27.8125C246.774 28.1002 246.585 28.3854 246.382 28.6634C246.257 28.8341 246.123 28.9974 245.99 29.1657C245.799 29.4095 245.604 29.6533 245.4 29.8752C245.256 30.0385 245.109 30.1994 244.957 30.3628C244.744 30.5871 244.524 30.8041 244.297 31.0187C244.147 31.1625 243.995 31.3064 243.839 31.4429C243.582 31.6697 243.313 31.8867 243.041 32.0988C242.904 32.2061 242.772 32.3182 242.63 32.4206C242.217 32.7262 241.79 33.0131 241.35 33.2813C241.266 33.3301 241.178 33.3715 241.105 33.4203C240.738 33.6373 240.371 33.8396 239.976 34.0298C239.812 34.1103 239.641 34.181 239.472 34.2566C239.156 34.398 238.838 34.5345 238.513 34.6589C238.324 34.7296 238.131 34.7954 237.938 34.8612C237.617 34.971 237.291 35.0709 236.958 35.1611C236.763 35.2148 236.569 35.2684 236.371 35.3148C236.014 35.4001 235.649 35.4708 235.282 35.5317C235.257 35.5317 235.235 35.5317 235.211 35.5464C235.452 39.8441 235.667 44.1442 235.855 48.4468C236.896 46.3178 238.362 44.4232 240.165 42.8792C241.967 41.3351 244.068 40.1741 246.337 39.4675C248.606 38.7609 250.996 38.5236 253.36 38.77C255.724 39.0164 258.013 39.7415 260.086 40.9006L257 49.3246L263.349 43.251C266.748 46.3542 268.772 50.6735 268.979 55.2615C269.059 56.8714 268.91 58.4845 268.536 60.0526C267.738 63.4459 265.935 66.5221 263.361 68.8822C260.786 71.2422 257.56 72.7772 254.099 73.2878C250.638 73.7985 247.103 73.2613 243.952 71.746C240.801 70.2307 238.181 67.8072 236.43 64.7899C236.43 65.2264 236.462 65.6653 236.474 66.1017C236.589 70.6172 236.733 76.2348 234.474 81.2526C232.944 84.6538 230.48 87.4163 228.044 89.8911C226.461 91.5027 224.818 93.0607 223.134 94.5699C221.478 96.7847 219.317 98.5749 216.829 99.7925C214.063 101.915 211.199 103.903 208.238 105.756L206.439 106.912C204.777 107.938 203.073 108.992 201.401 110.082C201.695 110.052 201.986 110.021 202.285 110.008C205.985 109.836 209.645 110.839 212.736 112.874C215.826 114.909 218.187 117.87 219.477 121.329L208.566 130.177L220.559 127.405C220.556 130.346 219.804 133.239 218.374 135.812C216.944 138.386 214.883 140.556 212.383 142.121C209.882 143.685 207.024 144.593 204.076 144.759C201.128 144.925 198.186 144.344 195.525 143.07C195.794 143.407 196.066 143.741 196.335 144.075C196.871 144.74 197.404 145.401 197.926 146.057C205.024 155.012 207.002 163.517 203.484 170L199.211 167.698C202.637 161.388 197.497 153.313 194.112 149.056C193.601 148.412 193.077 147.764 192.548 147.105C188.013 141.498 182.873 135.129 183.002 127.324C183.186 115.572 194.663 108.485 203.876 102.799Z" fill="#F2F2F2"/>
<path d="M148.5 173C210.08 173 260 170.761 260 168C260 165.239 210.08 163 148.5 163C86.9202 163 37 165.239 37 168C37 170.761 86.9202 173 148.5 173Z" fill="#3F3D56"/>
<path d="M238.268 166C239.034 164.637 238.166 162.968 237.175 161.752C236.183 160.535 234.975 159.279 235 157.724C235.036 155.498 237.476 154.185 239.428 153.005C240.873 152.129 242.207 151.091 243.401 149.912C243.902 149.458 244.316 148.923 244.624 148.329C245.025 147.459 245.015 146.47 244.99 145.515C244.904 142.34 244.743 139.168 244.504 136" stroke="#3F3D56" stroke-width="4" stroke-miterlimit="10"/>
<path d="M248 136.34C247.972 135.754 247.798 135.184 247.493 134.683C247.188 134.182 246.762 133.765 246.254 133.471L245.471 135.023L245.494 133.147C244.958 132.986 244.392 132.957 243.842 133.061C243.293 133.165 242.776 133.399 242.337 133.744C241.897 134.09 241.546 134.535 241.314 135.044C241.082 135.553 240.976 136.11 241.004 136.669C241.048 137.595 241.458 138.466 242.144 139.09C242.483 139.399 242.88 139.638 243.312 139.793C243.744 139.949 244.202 140.018 244.661 139.996C245.119 139.975 245.569 139.863 245.984 139.667C246.4 139.472 246.772 139.197 247.081 138.857C247.39 138.517 247.629 138.12 247.785 137.688C247.94 137.256 248.009 136.798 247.988 136.34H248Z" fill="#57B793"/>
<path d="M241.612 159.102C241.245 159.816 240.643 160.381 239.909 160.704C239.174 161.027 238.35 161.088 237.576 160.876C236.801 160.664 236.124 160.192 235.656 159.54C235.188 158.887 234.959 158.094 235.006 157.293C235.054 156.492 235.375 155.731 235.917 155.139C236.458 154.546 237.187 154.158 237.981 154.039C238.775 153.92 239.586 154.077 240.277 154.485C240.969 154.892 241.499 155.525 241.78 156.277L239.59 158.059L242 157.499C242 158.057 241.867 158.606 241.612 159.102Z" fill="#57B793"/>
<path d="M240.142 152.996C239.747 153.018 239.353 152.949 238.982 152.794C238.611 152.638 238.27 152.398 237.978 152.089C237.687 151.779 237.451 151.405 237.283 150.989C237.116 150.573 237.021 150.122 237.004 149.663C236.98 149.116 237.069 148.57 237.263 148.07C237.443 147.603 237.708 147.187 238.041 146.852C238.374 146.517 238.766 146.271 239.189 146.131L239.174 147.574L239.855 146.004C240.651 145.961 241.429 146.287 242.018 146.912C242.608 147.537 242.96 148.409 242.997 149.337C243.034 150.264 242.753 151.17 242.217 151.857C241.68 152.543 240.931 152.953 240.135 152.996H240.142Z" fill="#57B793"/>
<path d="M248.662 146.996C247.736 147.04 246.83 146.713 246.144 146.089C245.458 145.464 245.048 144.592 245.004 143.665C244.96 142.738 245.286 141.831 245.911 141.145C246.535 140.458 247.406 140.048 248.333 140.004C248.988 139.972 249.638 140.126 250.209 140.449L249.59 142.147L250.863 140.923C251.546 141.548 251.953 142.418 251.996 143.343C252.012 143.667 251.982 143.991 251.906 144.307C251.731 145.047 251.32 145.71 250.735 146.196C250.149 146.681 249.422 146.962 248.662 146.996Z" fill="#57B793"/>
<path opacity="0.1" d="M247.597 137.353C246.775 137.442 245.977 137.694 245.153 137.744C244.329 137.794 243.424 137.6 242.902 136.968C242.62 136.629 242.481 136.2 242.242 135.831C242.018 135.486 241.711 135.2 241.348 135C241.133 135.442 241.015 135.923 241.001 136.412C240.988 136.901 241.079 137.388 241.269 137.84C241.459 138.293 241.743 138.701 242.104 139.038C242.464 139.376 242.893 139.635 243.361 139.799C243.83 139.962 244.329 140.027 244.825 139.989C245.321 139.952 245.803 139.811 246.24 139.578C246.678 139.345 247.06 139.024 247.364 138.636C247.667 138.248 247.884 137.801 248 137.325C247.863 137.33 247.729 137.34 247.597 137.353Z" fill="black"/>
<path opacity="0.1" d="M248.72 146.996C248.108 147.026 247.498 146.899 246.95 146.628C246.403 146.356 245.936 145.948 245.596 145.445C245.255 144.941 245.053 144.359 245.009 143.755C244.965 143.151 245.08 142.547 245.344 142C245.626 142.188 245.868 142.428 246.057 142.707C246.31 143.084 246.462 143.519 246.76 143.866C247.311 144.508 248.257 144.718 249.114 144.678C249.972 144.638 250.796 144.4 251.643 144.323C251.76 144.323 251.881 144.303 252 144.3C251.824 145.041 251.409 145.704 250.817 146.191C250.225 146.677 249.489 146.96 248.72 146.996Z" fill="black"/>
<path opacity="0.1" d="M240.209 152.996C239.806 153.018 239.404 152.949 239.024 152.791C238.645 152.633 238.297 152.39 237.999 152.076C237.701 151.762 237.46 151.383 237.289 150.96C237.119 150.538 237.022 150.081 237.004 149.616C236.98 149.06 237.07 148.506 237.268 148C237.523 148.192 237.745 148.437 237.924 148.721C238.162 149.11 238.311 149.557 238.58 149.916C239.098 150.584 239.968 150.819 240.753 150.796C241.538 150.774 242.244 150.561 243 150.495C242.813 151.194 242.445 151.808 241.946 152.256C241.446 152.703 240.84 152.961 240.209 152.996Z" fill="black"/>
<path opacity="0.1" d="M242 159.326C241.803 159.666 241.521 159.972 241.172 160.228C240.822 160.483 240.41 160.683 239.961 160.815C239.511 160.947 239.033 161.01 238.552 160.999C238.072 160.988 237.599 160.903 237.16 160.751C236.722 160.598 236.326 160.38 235.997 160.109C235.667 159.838 235.409 159.519 235.239 159.17C235.068 158.822 234.987 158.451 235.002 158.079C235.016 157.706 235.125 157.34 235.322 157C235.622 157.155 235.893 157.342 236.125 157.556C236.473 157.886 236.702 158.258 237.107 158.567C237.856 159.136 239.064 159.376 240.139 159.393C240.761 159.399 241.382 159.377 242 159.326Z" fill="black"/>
<path d="M233 164.431C233 164.431 235.685 164.349 236.496 163.781C237.306 163.212 240.62 162.534 240.831 163.446C241.042 164.359 244.87 167.985 241.835 168C238.8 168.014 234.785 167.522 233.978 167.044C233.17 166.566 233 164.431 233 164.431Z" fill="#656380"/>
<path opacity="0.2" d="M241.897 167.639C238.862 167.666 234.841 167.106 234.032 166.573C233.418 166.162 233.17 164.683 233.09 164H233C233 164 233.17 166.381 233.971 166.933C234.773 167.485 238.799 168.021 241.836 167.999C242.713 167.999 243.016 167.647 242.999 167.141C242.885 167.442 242.55 167.634 241.897 167.639Z" fill="black"/>
<path d="M84.4816 158C82.7317 154.728 84.7226 150.721 86.9978 147.805C89.2731 144.888 92.0593 141.855 91.999 138.138C91.9123 132.797 86.3013 129.644 81.8183 126.813C78.4917 124.712 75.423 122.22 72.6763 119.39C71.5748 118.253 70.5071 117.041 69.866 115.59C68.9404 113.501 68.9645 111.128 69.0248 108.84C69.2176 101.212 69.5904 93.5986 70.1431 86" stroke="#3F3D56" stroke-width="4" stroke-miterlimit="10"/>
<path d="M61.0094 85.6179C61.0774 84.2796 61.5015 82.979 62.2428 81.8352C62.9841 80.6915 64.0188 79.7413 65.2519 79.072L67.1546 82.6138L67.0975 78.3262C68.826 77.8468 70.6717 77.8969 72.3681 78.4692C74.0644 79.0414 75.5236 80.1063 76.535 81.51C77.5464 82.9138 78.0576 84.5837 77.9948 86.2787C77.9321 87.9737 77.2986 89.606 76.1858 90.9401C75.073 92.2741 73.5386 93.2408 71.804 93.7005C70.0694 94.1602 68.2245 94.0892 66.5356 93.4977C64.8467 92.9062 63.4013 91.8249 62.4079 90.4098C61.4146 88.9946 60.9249 87.319 61.0094 85.6249V85.6179Z" fill="#57B793"/>
<path d="M75.9393 142.379C76.7941 144.046 78.1753 145.383 79.8681 146.184C81.5609 146.985 83.4707 147.204 85.3006 146.807C87.1306 146.41 88.7784 145.42 89.9879 143.99C91.1974 142.559 91.901 140.77 91.9893 138.898C92.0487 137.722 91.8599 136.546 91.4352 135.448C90.8144 133.836 89.7181 132.452 88.2921 131.479C86.866 130.506 85.1778 129.99 83.4517 130C81.7257 130.01 80.0435 130.545 78.6288 131.535C77.2142 132.524 76.134 133.921 75.5318 135.54L80.842 139.861L75 138.501C74.9976 139.85 75.3198 141.18 75.9393 142.379Z" fill="#57B793"/>
<path d="M80.1014 125.991C82.1877 126.086 84.2363 125.412 85.857 124.096C87.4778 122.78 88.5576 120.915 88.8909 118.856C89.2242 116.796 88.7877 114.686 87.6644 112.927C86.5412 111.168 84.8097 109.883 82.7996 109.317L82.8443 112.817L80.9295 109.009H80.9071C78.6524 108.904 76.4483 109.698 74.7797 111.216C73.111 112.735 72.1145 114.853 72.0093 117.105C71.9041 119.357 72.6988 121.559 74.2187 123.226C75.7386 124.893 77.8591 125.889 80.1138 125.994L80.1014 125.991Z" fill="#57B793"/>
<path d="M60.099 112.99C61.4129 113.054 62.7237 112.811 63.928 112.281C65.1322 111.751 66.197 110.948 67.0381 109.935C67.8792 108.922 68.4738 107.727 68.7748 106.445C69.0758 105.163 69.0751 103.828 68.7726 102.546C68.4701 101.264 67.8743 100.07 67.032 99.0576C66.1897 98.0457 65.1241 97.2437 63.9193 96.7149C62.7144 96.1861 61.4033 95.945 60.0895 96.0105C58.7756 96.0761 57.495 96.4466 56.3486 97.0928L57.8369 101.209L54.7637 98.2354C53.9421 98.9841 53.2761 99.8876 52.8036 100.894C52.3312 101.901 52.0616 102.991 52.0104 104.102C51.971 104.889 52.0437 105.677 52.2262 106.442C52.6481 108.243 53.6451 109.857 55.066 111.038C56.4869 112.22 58.254 112.905 60.099 112.99Z" fill="#57B793"/>
<path opacity="0.1" d="M61.9827 87.5666C63.9681 87.7772 65.8983 88.3701 67.8888 88.4887C69.8793 88.6073 72.0683 88.1499 73.3275 86.659C74.006 85.8555 74.3453 84.839 74.9183 83.9628C75.4613 83.1465 76.2056 82.4722 77.0848 82C77.6323 83.0495 77.9417 84.1991 77.9925 85.3726C78.0434 86.5461 77.8345 87.7165 77.3797 88.8063C76.9249 89.8961 76.2346 90.8803 75.3546 91.6935C74.4746 92.5067 73.4251 93.1304 72.2758 93.5232C71.1264 93.9159 69.9034 94.0688 68.6879 93.9716C67.4725 93.8744 66.2924 93.5294 65.2261 92.9594C64.1597 92.3894 63.2314 91.6076 62.5028 90.6657C61.7742 89.7238 61.2619 88.6435 61 87.4964C61.3343 87.5109 61.661 87.5327 61.9827 87.5666Z" fill="black"/>
<path opacity="0.1" d="M59.9817 112.991C61.4663 113.058 62.9434 112.749 64.2697 112.094C65.5959 111.44 66.7262 110.462 67.5509 109.255C68.3756 108.049 68.8667 106.654 68.9765 105.208C69.0862 103.762 68.811 102.312 68.1774 101C67.4934 101.449 66.9051 102.023 66.4451 102.691C65.8307 103.595 65.4606 104.639 64.738 105.47C63.3959 107.008 61.1047 107.512 59.0249 107.421C56.9451 107.33 54.9384 106.75 52.8687 106.566C52.5816 106.541 52.2896 106.521 52 106.514C52.4278 108.294 53.4384 109.889 54.8787 111.058C56.319 112.227 58.1105 112.905 59.9817 112.991Z" fill="black"/>
<path opacity="0.1" d="M80.4376 125.991C81.8335 126.059 83.223 125.754 84.4734 125.104C85.7238 124.454 86.7934 123.482 87.5803 122.279C88.3671 121.077 88.845 119.684 88.9682 118.235C89.0914 116.786 88.8558 115.328 88.284 114C87.6104 114.466 87.0245 115.057 86.5555 115.742C85.9196 116.676 85.5227 117.751 84.7792 118.613C83.3997 120.213 81.0807 120.778 78.9888 120.726C76.9638 120.681 75.013 120.163 73 120.002C73.4984 121.675 74.4797 123.147 75.8106 124.219C77.1414 125.29 78.757 125.909 80.4376 125.991Z" fill="black"/>
<path opacity="0.1" d="M76 142.2C76.8516 143.931 78.2275 145.321 79.9139 146.153C81.6004 146.984 83.5029 147.212 85.326 146.8C87.149 146.387 88.7905 145.359 89.9955 143.873C91.2005 142.387 91.9014 140.528 91.9894 138.584C92.0485 137.362 91.8604 136.141 91.4373 135C90.7404 135.478 90.1148 136.06 89.5807 136.728C88.7762 137.761 88.2439 138.912 87.3131 139.868C85.5803 141.64 82.7854 142.373 80.2975 142.45C78.8615 142.456 77.4265 142.372 76 142.2Z" fill="black"/>
<path d="M142 163.361L109.92 170L109.191 169.926L81 167.049V130.902L115.51 125L140.542 127.951L140.549 128.111L140.552 128.189L142 163.361Z" fill="#3787FF"/>
<path opacity="0.1" d="M142 163.343L109.733 170L109 169.926V132.771L140.541 128L142 163.343Z" fill="black"/>
<path opacity="0.05" d="M141 128.242L140.99 128.25L109.404 133L81 131L115.77 125L140.99 128L140.998 128.162L141 128.242Z" fill="black"/>
<path d="M178 164.508L145.394 171L144.653 170.928L116 168.115V132.77L151.076 127L176.518 129.885L176.525 130.042L176.528 130.118L178 164.508Z" fill="#3F3D56"/>
<path opacity="0.1" d="M178 164.502L145.733 171L145 170.928V134.657L176.541 130L178 164.502Z" fill="black"/>
<path opacity="0.05" d="M176 129.837L175.99 129.844L144.404 134L116 132.25L150.77 127L175.99 129.625L175.998 129.767L176 129.837Z" fill="black"/>
<path d="M156 129.361L123.394 136L122.653 135.926L94 133.049V96.9016L129.076 91L154.518 93.9508L154.525 94.1107L154.528 94.1893L156 129.361Z" fill="#3F3D56"/>
<path opacity="0.1" d="M156 129.502L122.756 136L122 135.928V99.6572L154.496 95L156 129.502Z" fill="black"/>
<path opacity="0.05" d="M154 94.2425L153.99 94.25L122.404 99L94 97L128.77 91L153.99 94L153.998 94.1625L154 94.2425Z" fill="black"/>
<path d="M174 131.457L157.172 135L156.788 134.96L142 133.425V114.148L160.103 111L173.235 112.575L173.24 112.661V112.701L174 131.457Z" fill="#3F3D56"/>
<path opacity="0.1" d="M174 131.511L157.379 135L157 134.96V115.499L173.25 113L174 131.511Z" fill="black"/>
<path opacity="0.05" d="M173 112.621L172.995 112.625L156.675 115L142 113.999L159.964 111L172.995 112.501L173 112.582V112.621Z" fill="black"/>
<path d="M129 94.6069L112.172 98L111.788 97.9639L97 96.4925V78.0174L115.103 75L128.235 76.5099L128.24 76.5918V76.6303L129 94.6069Z" fill="#3F3D56"/>
<path opacity="0.1" d="M129 94.5132L111.401 98L111 97.9629V78.4994L128.206 76L129 94.5132Z" fill="black"/>
<path opacity="0.05" d="M128 76.6206L127.995 76.6254L111.675 79L97 77.9994L114.964 75L127.995 76.5009L128 76.5823V76.6206Z" fill="black"/>
<path d="M158 93.6069L141.172 97L140.788 96.9639L126 95.4925V77.0174L144.103 74L157.235 75.5099L157.24 75.5918V75.6303L158 93.6069Z" fill="#3787FF"/>
<path opacity="0.1" d="M158 93.6716L141.379 97L141 96.9646V78.3858L157.25 76L158 93.6716Z" fill="black"/>
<path opacity="0.05" d="M157 75.6206L156.995 75.6254L140.675 78L126 76.9994L143.964 74L156.995 75.5009L157 75.5823V75.6206Z" fill="black"/>
<path d="M167 75.4594L150.172 79L149.788 78.9623L135 77.427V58.1486L153.103 55L166.235 56.5755L166.24 56.661V56.7012L167 75.4594Z" fill="#3F3D56"/>
<path opacity="0.1" d="M167 75.5132L150.379 79L150 78.9629V59.4994L166.25 57L167 75.5132Z" fill="black"/>
<path opacity="0.05" d="M166 56.6206L165.995 56.6254L149.675 59L135 57.9994L152.964 55L165.995 56.5009L166 56.5823V56.6206Z" fill="black"/>
<path d="M178.956 37.0183C178.785 38.6212 177.62 39.9135 177.188 41.4573C176.54 43.7877 177.658 46.2908 179.198 48.1157C180.44 49.5657 181.943 50.7426 183.621 51.5782C185.3 52.4138 187.119 52.8916 188.974 52.9837C189.519 53.033 190.068 52.9702 190.59 52.7988C191.055 52.6001 191.474 52.2991 191.818 51.9159C192.974 50.6952 193.596 49.0059 193.843 47.3019C194.089 45.5978 193.996 43.8641 193.899 42.1453C193.899 41.7896 193.837 41.4369 193.716 41.1046C193.559 40.7886 193.342 40.5093 193.079 40.2834C192.246 39.4796 191.328 38.7788 190.343 38.1946C189.92 37.948 189.467 37.7014 189.197 37.2748C189.012 36.935 188.891 36.5606 188.842 36.1724L188.539 34.5547C188.486 34.0882 188.334 33.6401 188.095 33.2427C187.562 32.4881 186.541 32.3845 185.646 32.3475L182.357 32.2119C181.336 32.17 179.992 31.8617 178.994 32.0738C178.054 32.2686 178.372 33.1712 178.541 33.9899C178.785 34.9802 178.925 35.9958 178.956 37.0183Z" fill="#FFC0C6"/>
<path opacity="0.1" d="M178.956 37.0183C178.785 38.6212 177.62 39.9135 177.188 41.4573C176.54 43.7877 177.658 46.2908 179.198 48.1157C180.44 49.5657 181.943 50.7426 183.621 51.5782C185.3 52.4138 187.119 52.8916 188.974 52.9837C189.519 53.033 190.068 52.9702 190.59 52.7988C191.055 52.6001 191.474 52.2991 191.818 51.9159C192.974 50.6952 193.596 49.0059 193.843 47.3019C194.089 45.5978 193.996 43.8641 193.899 42.1453C193.899 41.7896 193.837 41.4369 193.716 41.1046C193.559 40.7886 193.342 40.5093 193.079 40.2834C192.246 39.4796 191.328 38.7788 190.343 38.1946C189.92 37.948 189.467 37.7014 189.197 37.2748C189.012 36.935 188.891 36.5606 188.842 36.1724L188.539 34.5547C188.486 34.0882 188.334 33.6401 188.095 33.2427C187.562 32.4881 186.541 32.3845 185.646 32.3475L182.357 32.2119C181.336 32.17 179.992 31.8617 178.994 32.0738C178.054 32.2686 178.372 33.1712 178.541 33.9899C178.785 34.9802 178.925 35.9958 178.956 37.0183Z" fill="black"/>
<path d="M200.797 107.907L199.342 123.896C198.962 128.089 198.575 132.3 197.83 136.44C197.585 137.866 197.272 139.285 196.914 140.692C195.919 144.599 194.476 148.417 194.011 152.421C193.996 152.537 193.984 152.667 193.972 152.772C193.876 153.656 193.793 154.55 193.482 155.375C193.237 155.986 192.891 156.544 192.639 157.148C192.149 158.356 192.07 159.691 192.009 161C190.243 160.001 188.309 159.335 186.303 159.036C185.323 158.891 184.257 158.79 183.608 158.054C182.873 157.253 182.959 156.028 183.082 154.953C183.467 151.613 183.851 148.276 184.233 144.94C184.36 143.504 184.606 142.082 184.968 140.687C185.1 140.223 185.26 139.767 185.421 139.31C185.644 138.681 185.87 138.053 186.039 137.407C186.273 136.37 186.435 135.317 186.524 134.257C186.918 130.898 187.393 127.547 187.81 124.19L187.832 124.013C188.457 118.926 188.932 113.814 188.795 108.69C188.775 107.931 188.743 107.173 188.694 106.411C188.626 105.309 188.525 104.725 189.429 104.035C190.436 103.274 191.762 102.741 192.913 102.242C193.533 101.972 200.359 99.5415 200.508 100.077C200.825 101.214 200.99 102.388 200.998 103.568C201.012 105.017 200.945 106.465 200.797 107.907Z" fill="#605D82"/>
<path opacity="0.1" d="M197 136.53C196.764 137.969 196.461 139.4 196.116 140.819C195.156 144.758 193.763 148.608 193.314 152.646C193.3 152.762 193.288 152.894 193.276 153C190.339 148.608 187.866 143.884 185 139.445C185.215 138.811 185.433 138.177 185.596 137.526C185.831 136.474 185.995 135.406 186.088 134.329C186.468 130.942 186.927 127.563 187.329 124.178L187.35 124C187.516 124.718 187.754 125.416 188.06 126.082C189.984 130.177 194.557 132.247 196.794 136.166C196.868 136.289 196.937 136.41 197 136.53Z" fill="black"/>
<path d="M173.014 100.931C173.113 104.213 173.63 107.467 174.147 110.709L175.212 117.391C175.794 121.054 176.404 124.789 178.11 128.068C179.387 130.523 181.224 132.617 182.889 134.817C186.978 140.227 190.052 146.357 193.929 151.926C195.058 153.544 196.669 155.297 198.592 154.958C199.854 154.737 200.77 153.668 201.76 152.846C202.93 151.876 204.338 151.166 205.26 149.948C206.181 148.731 206.361 146.711 205.113 145.845C204.687 145.55 204.168 145.439 203.685 145.251C201.753 144.509 200.5 142.588 199.705 140.648C198.911 138.707 198.426 136.626 197.366 134.822C195.06 130.904 190.344 128.835 188.36 124.739C187.249 122.448 187.142 119.79 187.059 117.248L186.842 110.736C186.818 110.024 186.801 109.284 187.086 108.633C187.844 106.9 190.135 106.737 191.992 106.517C194.098 106.267 196.138 105.614 198.004 104.591C199.074 104.005 200.117 103.257 200.685 102.168C201.207 101.178 201.277 100.013 201.338 98.8892L201.982 87.0865C202.038 86.0718 202.086 85.02 201.738 84.0696C200.853 81.6789 197.88 80.8968 195.367 81.0107C190.693 81.2235 186.379 83.2653 181.963 84.6463C180.869 84.9878 179.769 85.2947 178.641 85.5248C177.666 85.7253 176.447 85.6436 175.512 85.9654C173.835 86.5395 173.876 90.2667 173.64 91.811C173.152 94.8246 172.942 97.8778 173.014 100.931Z" fill="#605D82"/>
<path d="M197.892 154.801C198.287 155.233 198.416 155.866 198.519 156.463C199.09 159.777 199.387 163.139 199.406 166.511C199.381 166.825 199.438 167.141 199.572 167.421C199.684 167.588 199.835 167.719 200.009 167.801C201.152 168.391 202.477 167.568 203.43 166.665C205.194 164.992 206.687 162.746 206.788 160.208C206.813 159.555 206.746 158.895 206.851 158.249C207.005 157.293 207.521 156.46 207.975 155.626C208.75 154.202 209.377 152.69 209.844 151.117C210.017 150.525 210.134 149.781 209.704 149.368C209.553 149.239 209.381 149.142 209.197 149.082L204.033 147.008C203.584 146.828 202.472 149.922 202.297 150.261C201.865 151.089 201.435 151.557 200.568 151.749C199.701 151.941 198.631 151.663 197.804 152.141C196.402 152.949 197.1 153.938 197.892 154.801Z" fill="#535070"/>
<path d="M189 156.952C188.902 156.748 188.765 156.567 188.598 156.42C188.354 156.257 188.077 156.159 187.789 156.132C186.786 155.952 185.596 155.835 184.901 156.617C184.251 157.349 184.364 158.541 183.822 159.365C183.65 159.615 183.416 159.84 183.267 160.115C183.083 160.536 183.001 160.997 183.029 161.459C183 162.731 182.971 164.008 183.057 165.277C183.127 166.341 183.296 167.458 183.934 168.292C184.956 169.632 186.8 169.824 188.434 169.909L189.759 169.981C190.124 170.026 190.493 169.99 190.843 169.876C191.061 169.772 191.255 169.623 191.416 169.438C191.577 169.253 191.701 169.036 191.78 168.8C192.47 167.006 191.378 165.074 190.705 163.275C189.929 161.204 190.067 158.908 189 156.952Z" fill="#535070"/>
<path d="M178.587 27.9861C178.569 27.8015 178.595 27.6153 178.661 27.4434C178.857 27.0807 179.369 27.1897 179.755 27.281C181.308 27.6919 182.945 27.3191 184.546 27.4155C186.147 27.5118 187.949 28.3514 188.27 30C189.432 29.1366 190.433 28.0569 191.223 26.8144C191.668 26.1169 192.054 25.3179 191.994 24.4809C191.907 23.2736 190.943 22.3707 190.062 21.6047L187.406 19.322C187.056 18.9849 186.652 18.7153 186.213 18.5256C185.599 18.3049 184.928 18.4115 184.281 18.4115C182.349 18.4115 180.277 17.4857 178.555 18.4115C177.831 18.7995 177.292 19.4666 176.771 20.1159L174.397 23.0682C174.217 23.2564 174.086 23.4894 174.015 23.7454C173.948 24.1055 174.124 24.4606 174.187 24.8233C174.298 25.4828 174.027 26.1879 174.235 26.822C174.58 27.872 175.797 28.0217 176.541 28.6253C176.816 28.8485 177.251 29.6119 177.582 29.6018C178.164 29.5891 178.57 28.4731 178.587 27.9861Z" fill="#3F3D56"/>
<path d="M182.5 36C186.642 36 190 32.6421 190 28.5C190 24.3579 186.642 21 182.5 21C178.358 21 175 24.3579 175 28.5C175 32.6421 178.358 36 182.5 36Z" fill="#FFC0C6"/>
<path d="M183.954 45.3473C183.687 44.5956 183.185 43.9468 182.519 43.4946C181.854 43.0423 181.059 42.8099 180.251 42.831C180.019 42.8746 179.779 42.8444 179.566 42.7449C179.445 42.654 179.348 42.5357 179.283 42.4002C178.806 41.5514 178.421 40.6551 178.136 39.7263C178.011 39.3151 177.838 38.8301 177.416 38.7242C177.076 38.6381 176.728 38.8547 176.501 39.1182C176.299 39.4009 176.08 39.6714 175.846 39.9282C174.846 40.7998 173.096 40.0045 172.048 40.8047C171.875 40.9352 171.733 41.1026 171.548 41.2233C171.368 41.3313 171.174 41.4142 170.97 41.4695C168.937 42.121 166.943 42.888 165 43.7666C165.7 47.9128 166.415 52.1378 168.055 56.0157C168.835 57.8622 169.718 59.6719 170.343 61.5751C171.728 65.7927 171.788 70.3058 171.805 74.74C171.805 77.7733 171.805 80.8707 170.805 83.7415C170.58 84.3915 170.305 85.0366 170.243 85.7112C170.18 86.3858 170.385 87.1491 170.948 87.5529C171.274 87.7644 171.647 87.8938 172.035 87.9296C173.763 88.1758 175.503 87.7277 177.203 87.3386C181.761 86.2996 186.411 85.7038 191.049 85.1227L198.825 84.1379C199.382 84.0995 199.928 83.9601 200.435 83.7267C201.857 82.961 201.992 80.8534 201.107 79.5141C200.685 78.8714 200.087 78.3446 199.73 77.665C199.372 76.9855 199.345 76.0302 199.957 75.5599C201.207 74.5997 200.832 72.8196 200.892 71.2635C201.059 66.9105 201.036 62.5608 200.825 58.2143C200.761 57.313 200.746 56.4089 200.78 55.506C200.867 53.9746 201.252 52.4751 201.637 50.9856L204 41.8265C203.382 40.8663 202.2 40.2557 201.082 39.9799C199.965 39.7042 198.797 39.6229 197.695 39.2856C195.444 38.5962 193.424 36.8481 191.067 37.0106C190.888 37.0137 190.712 37.0558 190.552 37.1337C190.022 37.4316 190.104 38.185 190.072 38.7858C189.997 40.1178 189.002 41.2282 187.906 42.0087C186.811 42.7892 185.556 43.3555 184.549 44.2443C184.374 44.3742 184.23 44.5403 184.127 44.7308C184.024 44.9214 183.965 45.1318 183.954 45.3473Z" fill="#3F3D56"/>
<path d="M153.101 54.0036C152.59 54.3512 152.047 54.6439 151.479 54.8774C150.941 55.1003 150.365 55.2771 149.924 55.6665C149.706 55.8647 149.523 56.1014 149.383 56.366C149.122 56.8505 148.99 57.3994 149.001 57.9555C149.011 58.5115 149.165 59.0543 149.445 59.5272C149.724 60.0002 150.12 60.386 150.591 60.6443C151.062 60.9026 151.59 61.0241 152.121 60.996C152.829 60.9576 153.498 60.6578 154.147 60.3632L159.59 57.8854C160.511 57.4678 161.505 56.981 161.941 56.0329C161.991 55.9442 162.01 55.8401 161.995 55.7383C161.953 55.6266 161.872 55.5353 161.77 55.4821C160.543 54.6473 159.47 53.5885 158.602 52.3561C158.38 52.0384 158.113 51.2902 157.789 51.098C156.638 50.4293 154.024 53.3784 153.101 54.0036Z" fill="#FFC0C6"/>
<path d="M211.834 52L213.817 54.3109C214.243 54.8047 214.669 55.2984 215.056 55.8317C216.009 57.1705 216.773 58.639 217.326 60.1943C217.757 61.3472 218.115 62.5767 217.965 63.8013C217.865 64.4291 217.698 65.0441 217.469 65.6357C217.106 66.773 216.655 67.8792 216.121 68.944C215.675 69.752 215.171 70.5252 214.613 71.2574C213.078 73.3326 211.398 75.2922 209.586 77.121C208.908 77.8049 208.618 78.9134 208.33 79.8368C207.785 81.5428 206.49 82.8735 205.239 84.1327C204.837 84.5667 204.391 84.9572 203.91 85.298C203.19 85.7722 202.347 86.0163 201.49 85.9992C201.116 86.0013 200.746 85.9231 200.403 85.7696C199.546 85.3548 199.111 84.345 199.021 83.3821C198.942 82.5072 199.085 81.6263 199.437 80.8244C200.575 78.2542 203.496 77.1408 205.561 75.2644C206.771 74.1657 207.698 72.7832 208.613 71.4179C209.233 70.5645 209.75 69.6387 210.155 68.6601C210.615 67.4034 210.436 65.9172 210.84 64.6432C211.009 64.1025 211.324 63.6162 211.496 63.0804C211.667 62.5447 211.726 61.9101 211.404 61.4485C211.162 61.1533 210.854 60.9228 210.506 60.7769C209.187 60.0955 207.71 59.2166 207.458 57.7278C207.358 56.9034 207.569 56.0708 208.049 55.3997C208.527 54.7371 209.085 54.1397 209.712 53.6221C210.285 53.0937 211.256 52.5086 211.834 52Z" fill="#FFC0C6"/>
<path d="M152.196 57.0585C151.846 56.3325 151.406 55.5916 150.697 55.231C150.352 55.0786 149.98 55 149.604 55C149.228 55 148.856 55.0786 148.51 55.231C147.823 55.5352 147.179 55.9333 146.596 56.4145L144.881 57.7099C144.492 57.971 144.148 58.2961 143.863 58.6721C143.591 59.1282 143.411 59.6354 143.334 60.1638C143.091 61.3746 142.894 62.6203 143.064 63.846C143.336 65.835 144.502 67.5555 145.785 69.0672C146.586 70.007 147.578 70.9568 148.797 70.999C149.324 71.0164 149.91 70.8026 150.128 70.3128C150.205 70.1182 150.245 69.9108 150.247 69.7012C150.379 67.4934 149.606 65.3378 148.707 63.3264C148.464 62.7794 148.202 62.2125 148.221 61.6133C148.214 61.5116 148.24 61.4102 148.294 61.3249C148.371 61.2422 148.475 61.1902 148.586 61.1782C149.817 60.9296 151.941 61.9092 152.803 60.5094C153.362 59.5845 152.594 57.8814 152.196 57.0585Z" fill="#FFC0C6"/>
<path d="M177.582 25.154C177.567 24.9846 177.594 24.8141 177.66 24.6564C177.855 24.3216 178.367 24.4239 178.754 24.5076C180.307 24.8843 181.944 24.5425 183.545 24.6308C185.147 24.7192 186.946 25.4888 187.27 27C188.43 26.2073 189.431 25.2178 190.223 24.0798C190.668 23.4381 191.054 22.7058 190.994 21.9385C190.907 20.8318 189.941 20.0041 189.062 19.3043L186.405 17.2118C186.056 16.9028 185.653 16.6557 185.214 16.4818C184.598 16.2795 183.929 16.3772 183.282 16.3772C181.35 16.3772 179.278 15.5285 177.556 16.3772C176.831 16.7329 176.293 17.3444 175.771 17.9396L173.394 20.6458C173.216 20.8187 173.085 21.0322 173.015 21.2666C172.948 21.5967 173.124 21.9222 173.187 22.2547C173.298 22.8592 173.027 23.5056 173.235 24.0845C173.58 25.0493 174.798 25.1865 175.541 25.7399C175.817 25.9445 176.252 26.6443 176.582 26.635C177.155 26.6234 177.561 25.6004 177.582 25.154Z" fill="#3F3D56"/>
<path d="M161.243 46.4503C160.923 46.6433 160.642 46.8864 160.412 47.1689C160.123 47.5785 160.062 48.1051 159.813 48.5264C159.28 49.4486 158.029 49.7787 157.252 50.5347C157.126 50.638 157.038 50.7755 157 50.9279C156.995 51.1338 157.069 51.3345 157.209 51.4943L160.968 56.99C162.226 57.093 163.419 56.3627 164.672 56.4611C165.138 56.4962 165.618 56.646 166.066 56.5172C166.386 56.3846 166.686 56.2138 166.959 56.0093C167.714 55.5693 168.701 55.5178 169.327 54.9397C169.954 54.3615 170.006 53.5119 169.999 52.7231C170.01 52.0385 169.935 51.3551 169.775 50.6868C169.221 48.5803 167.488 46.9559 166.401 45.0881C165.87 44.1776 165.583 43.6463 164.463 44.2712C163.344 44.8962 162.302 45.7294 161.243 46.4503Z" fill="#3F3D56"/>
<path d="M206.078 43.9395C206.743 44.3852 207.343 44.9269 207.86 45.5481C208.398 46.2643 208.704 47.1444 209.222 47.8778C209.741 48.6112 210.407 49.1392 210.976 49.7944C211.841 50.7869 212.427 51.9945 213 53.1948C211.596 55.0791 210.066 56.8599 208.421 58.524C208.238 58.7466 207.996 58.9096 207.725 58.9934C207.541 59.0138 207.355 58.9867 207.184 58.9146C207.012 58.8425 206.861 58.7276 206.744 58.5803C206.488 58.3065 206.308 57.9642 206.064 57.6782C205.488 57.0664 204.722 56.6845 203.9 56.6001C203.085 56.5182 202.264 56.506 201.447 56.5635C201.268 56.5854 201.086 56.554 200.923 56.473C200.802 56.3873 200.704 56.2712 200.639 56.1357C199.691 54.4538 199.987 52.3416 200.326 50.4202L201.101 46.0199C201.214 45.1798 201.432 44.3581 201.748 43.5753C202.042 42.9275 202.696 41.8274 203.506 42.023C204.317 42.2185 205.393 43.431 206.078 43.9395Z" fill="#3F3D56"/>
<path d="M136 75.6069L119.172 79L118.788 78.9639L104 77.4925V59.0174L122.103 56L135.235 57.5099L135.24 57.5918V57.6303L136 75.6069Z" fill="#3787FF"/>
<path opacity="0.1" d="M136 75.6716L119.379 79L119 78.9646V60.3858L135.25 58L136 75.6716Z" fill="black"/>
<path opacity="0.05" d="M135 57.6206L134.995 57.6254L118.675 60L104 58.9994L121.964 56L134.995 57.5009L135 57.5823V57.6206Z" fill="black"/>
<path d="M145 57.4573L128.172 61L127.788 60.9598L113 59.4246V40.1482L131.103 37L144.235 38.5754L144.24 38.6608V38.701L145 57.4573Z" fill="#3F3D56"/>
<path opacity="0.1" d="M145 57.5111L128.379 61L128 60.9604V41.4992L144.25 39L145 57.5111Z" fill="black"/>
<path opacity="0.05" d="M144 38.6206L143.995 38.6254L127.675 41L113 39.9994L130.964 37L143.995 38.5009L144 38.5823V38.6206Z" fill="black"/>
</svg>
