<svg width="521" height="445" viewBox="0 0 521 445" fill="none" xmlns="http://www.w3.org/2000/svg">
<g clip-path="url(#clip0)">
<path d="M459.03 413.847C458.992 413.664 455.32 395.288 462.819 380.025C470.318 364.763 486.326 358.032 486.487 357.966L487.218 357.665L487.391 358.502C487.429 358.685 491.101 377.061 483.602 392.324C476.103 407.586 460.095 414.317 459.934 414.383L459.203 414.684L459.03 413.847ZM486.215 359.707C483.009 361.221 470.354 367.845 464.02 380.736C457.686 393.627 459.597 408.872 460.206 412.642C463.411 411.132 476.061 404.518 482.401 391.614C488.735 378.723 486.825 363.479 486.215 359.707Z" fill="#3F3D56"/>
<path d="M477.871 386.97C464.395 395.868 459.205 413.542 459.205 413.542C459.205 413.542 475.864 416.789 489.34 407.891C502.816 398.994 508.007 381.32 508.007 381.32C508.007 381.32 491.347 378.072 477.871 386.97Z" fill="#D0CDE1"/>
<path d="M185.075 333.43C183.473 333.43 181.854 333.402 180.265 333.347L180.301 332.081C182.583 332.159 184.911 332.18 187.204 332.146L187.219 333.413C186.506 333.424 185.791 333.429 185.075 333.43ZM194.17 333.135L194.102 331.87C196.387 331.722 198.702 331.514 200.981 331.252L201.102 332.513C198.805 332.777 196.473 332.987 194.17 333.135V333.135ZM173.321 332.938C171.017 332.744 168.688 332.49 166.4 332.182L166.541 330.924C168.812 331.229 171.122 331.482 173.409 331.674L173.321 332.938ZM208 331.544L207.827 330.291C210.097 329.913 212.385 329.474 214.625 328.985L214.85 330.228C212.592 330.721 210.288 331.163 208 331.544V331.544ZM159.518 331.08C157.242 330.657 154.944 330.17 152.689 329.633L152.934 328.394C155.172 328.927 157.452 329.41 159.711 329.83L159.518 331.08ZM221.639 328.569L221.361 327.338C223.59 326.733 225.831 326.065 228.022 325.352L228.351 326.567C226.142 327.286 223.884 327.96 221.639 328.569ZM145.929 327.842C143.696 327.19 141.449 326.473 139.25 325.71L139.598 324.502C141.78 325.259 144.01 325.97 146.225 326.616L145.929 327.842ZM234.971 324.228L234.592 323.031C236.755 322.206 238.93 321.314 241.058 320.379L241.487 321.556C239.343 322.498 237.151 323.397 234.971 324.228ZM132.651 323.235C130.482 322.36 128.3 321.416 126.166 320.43L126.614 319.261C128.732 320.24 130.898 321.177 133.05 322.045L132.651 323.235ZM247.869 318.565L247.39 317.411C249.467 316.375 251.555 315.269 253.595 314.125L254.121 315.254C252.065 316.407 249.961 317.521 247.869 318.565ZM260.228 311.631L259.656 310.53C261.648 309.283 263.637 307.972 265.565 306.633L266.182 307.703C264.239 309.053 262.236 310.375 260.228 311.631V311.631ZM271.967 303.48L271.306 302.442C273.182 301.004 275.053 299.497 276.869 297.966L277.573 298.971C275.744 300.515 273.857 302.032 271.967 303.48V303.48ZM95.8982 301.695C94.0337 300.209 92.1712 298.652 90.3619 297.067L91.0828 296.076C92.8782 297.649 94.7266 299.194 96.5768 300.669L95.8982 301.695ZM282.986 294.186L282.242 293.217C283.99 291.598 285.729 289.911 287.413 288.203L288.197 289.134C286.501 290.855 284.748 292.555 282.986 294.186V294.186ZM85.0247 292.167C83.2882 290.498 81.563 288.762 79.8973 287.007L80.6971 286.092C82.3504 287.834 84.0624 289.557 85.7856 291.214L85.0247 292.167ZM293.194 283.824L292.372 282.934C293.983 281.142 295.577 279.287 297.109 277.422L297.967 278.27C296.424 280.15 294.818 282.018 293.194 283.824V283.824ZM74.9905 281.598C73.3973 279.759 71.8238 277.859 70.3138 275.95L71.1864 275.119C72.6849 277.014 74.2462 278.9 75.8276 280.724L74.9905 281.598ZM302.505 272.483L301.613 271.678C303.069 269.733 304.502 267.727 305.875 265.713L306.8 266.472C305.417 268.502 303.972 270.524 302.505 272.483ZM65.8771 270.076C64.4464 268.092 63.0376 266.043 61.6898 263.988L62.6272 263.247C63.9649 265.287 65.3629 267.32 66.783 269.29L65.8771 270.076ZM310.839 260.252L309.884 259.54C311.172 257.459 312.434 255.316 313.634 253.171L314.619 253.835C313.409 255.996 312.137 258.155 310.839 260.252ZM57.761 257.698C56.5023 255.58 55.2704 253.401 54.0991 251.22L55.0941 250.576C56.2566 252.741 57.4792 254.904 58.7284 257.005L57.761 257.698ZM318.126 247.232L317.115 246.619C318.224 244.417 319.302 242.155 320.319 239.896L321.354 240.458C320.33 242.733 319.244 245.013 318.126 247.232H318.126ZM324.295 233.526L323.237 233.018C324.158 230.71 325.042 228.348 325.865 225.995L326.943 226.45C326.114 228.821 325.223 231.201 324.295 233.526H324.295ZM44.7905 230.791C43.905 228.458 43.0569 226.072 42.27 223.697L43.3558 223.264C44.1365 225.621 44.9781 227.989 45.8566 230.303L44.7905 230.791ZM329.291 219.244L328.194 218.845C328.915 216.461 329.595 214.025 330.216 211.603L331.328 211.945C330.703 214.386 330.017 216.842 329.291 219.244V219.244ZM40.0448 216.466C39.3575 214.05 38.7116 211.581 38.1252 209.129L39.2427 208.807C39.8245 211.241 40.4656 213.691 41.1475 216.088L40.0448 216.466ZM333.056 204.552L331.931 204.264C332.448 201.821 332.92 199.326 333.336 196.849L334.472 197.078C334.054 199.575 333.577 202.089 333.056 204.552ZM36.5165 201.703C36.0348 199.227 35.5988 196.704 35.2209 194.204L36.3603 193.996C36.7357 196.478 37.1683 198.981 37.6464 201.438L36.5165 201.703ZM335.573 189.542L334.428 189.37C334.739 186.887 335.001 184.356 335.208 181.845L336.359 181.959C336.15 184.489 335.886 187.04 335.573 189.542ZM34.2399 186.648C33.9675 184.138 33.7439 181.582 33.5749 179.051L34.7273 178.958C34.8945 181.471 35.1168 184.007 35.3873 186.498L34.2399 186.648ZM336.829 174.344L335.675 174.287C335.778 171.775 335.83 169.227 335.83 166.715H336.986C336.986 169.247 336.933 171.814 336.829 174.344ZM33.2249 171.427C33.1854 169.873 33.1654 168.287 33.1651 166.715C33.1651 165.739 33.1727 164.765 33.1879 163.794L34.3432 163.816C34.3279 164.78 34.3203 165.747 34.3203 166.715C34.3206 168.275 34.3406 169.85 34.3795 171.393L33.2249 171.427ZM34.6173 156.247L33.4643 156.168C33.6085 153.635 33.8076 151.076 34.0555 148.563L35.2039 148.7C34.9577 151.194 34.7606 153.733 34.6173 156.247H34.6173ZM335.085 148.513C334.854 146.013 334.536 144.795 334.201 142.306L335.344 142.121C335.682 144.628 335.971 146.542 336.204 149.061L335.085 148.513ZM36.1033 141.19L34.9617 140.996C35.3156 138.488 35.7268 135.961 36.184 133.482L37.3161 133.734C36.8626 136.193 36.4545 138.702 36.1033 141.19H36.1033ZM333.036 134.841C332.595 132.368 332.098 129.879 331.558 127.442L332.68 127.143C333.224 129.598 333.725 132.106 334.169 134.598L333.036 134.841ZM38.8396 126.346L37.7191 126.038C38.2801 123.583 38.9014 121.107 39.5659 118.679L40.672 119.043C40.0129 121.453 39.3964 123.91 38.8396 126.346ZM329.771 120.126C329.127 117.712 328.423 115.283 327.679 112.908L328.771 112.495C329.521 114.889 330.23 117.337 330.88 119.769L329.771 120.126ZM42.8163 111.821L41.7265 111.401C42.4942 109.004 43.3231 106.596 44.1901 104.244L45.2613 104.719C44.4008 107.054 43.5781 109.443 42.8163 111.821V111.821ZM325.285 105.803C324.442 103.47 323.539 101.128 322.602 98.8429L323.656 98.3223C324.6 100.625 325.51 102.985 326.359 105.335L325.285 105.803ZM48.0012 97.7506L46.9515 97.2213C47.9163 94.9154 48.9432 92.603 50.0037 90.3485L51.0303 90.9297C49.9777 93.1673 48.9587 95.462 48.0012 97.7506ZM319.631 92.023C318.597 89.7848 317.502 87.5421 316.375 85.3578L317.38 84.7332C318.516 86.9345 319.619 89.1943 320.661 91.4497L319.631 92.023ZM54.3416 84.2708L53.3404 83.6381C54.4928 81.442 55.7081 79.2438 56.9527 77.1051L57.9263 77.7872C56.6913 79.9099 55.485 82.0914 54.3416 84.2708ZM312.844 78.8603C311.624 76.7277 310.345 74.6032 309.045 72.5455L309.994 71.8231C311.304 73.8966 312.593 76.0372 313.822 78.1862L312.844 78.8603ZM61.7772 71.4922L60.8329 70.7618C62.1647 68.6889 63.5571 66.6229 64.9723 64.6209L65.885 65.3978C64.4808 67.3849 63.0985 69.4352 61.7772 71.4922ZM304.986 66.426C303.594 64.425 302.144 62.4357 300.676 60.5136L301.562 59.6992C303.041 61.6362 304.502 63.6403 305.904 65.6565L304.986 66.426ZM70.241 59.5172L69.3616 58.6951C70.8561 56.7687 72.4138 54.8512 73.9912 52.9959L74.8356 53.8607C73.2704 55.7021 71.7245 57.6053 70.241 59.5172ZM296.125 54.8212C294.573 52.9675 292.964 51.1302 291.341 49.3609L292.156 48.4615C293.79 50.2446 295.412 52.0956 296.976 53.9632L296.125 54.8212ZM79.6587 48.4416L78.851 47.5354C80.5028 45.7618 82.2122 44.0084 83.9312 42.324L84.7006 43.2699C82.9946 44.9413 81.2982 46.6814 79.6587 48.4417V48.4416ZM286.336 44.144C284.636 42.4512 282.88 40.7817 281.118 39.1818L281.854 38.2049C283.629 39.8169 285.399 41.4992 287.112 43.2049L286.336 44.144ZM89.9507 38.3553L89.2213 37.3723C91.008 35.7755 92.8545 34.2007 94.7097 32.6915L95.3979 33.7098C93.5565 35.2078 91.7238 36.7706 89.9507 38.3553H89.9507ZM101.03 29.3431L100.386 28.2913C102.298 26.8793 104.266 25.4967 106.237 24.1809L106.837 25.2642C104.882 26.5698 102.928 27.9422 101.03 29.3431H101.03ZM112.806 21.4819L112.252 20.3695C114.275 19.1546 116.349 17.9759 118.417 16.8657L118.925 18.0047C116.873 19.1063 114.814 20.276 112.806 21.4819ZM252.223 18.5445C250.168 17.4207 248.062 16.3349 245.965 15.3175L246.432 14.158C248.545 15.1832 250.667 16.2773 252.739 17.4098L252.223 18.5445ZM125.18 14.8399L124.721 13.6767C126.835 12.6711 128.997 11.7066 131.148 10.8099L131.558 11.9954C129.424 12.885 127.278 13.842 125.18 14.8399ZM239.576 12.4092C237.437 11.499 235.248 10.6304 233.069 9.82814L233.436 8.62597C235.632 9.43475 237.838 10.3098 239.993 11.2275L239.576 12.4092ZM138.065 9.47003L137.706 8.26538C139.901 7.47549 142.141 6.73171 144.363 6.05541L144.672 7.27678C142.467 7.94812 140.244 8.68604 138.065 9.47003H138.065ZM226.476 7.58506C224.272 6.89576 222.025 6.25381 219.797 5.67717L220.062 4.44344C222.308 5.0244 224.572 5.67129 226.793 6.36555L226.476 7.58506ZM151.363 5.41997L151.106 4.18405C153.356 3.6198 155.649 3.10568 157.92 2.65626L158.125 3.90363C155.871 4.34996 153.596 4.86005 151.363 5.41997ZM213.044 4.10977C210.795 3.64639 208.503 3.23414 206.234 2.88438L206.394 1.62896C208.681 1.98151 210.99 2.39689 213.257 2.86364L213.044 4.10977ZM164.944 2.73024L164.791 1.47359C167.078 1.13869 169.403 0.857027 171.703 0.637267L171.803 1.90011C169.521 2.11862 167.214 2.39779 164.944 2.73024ZM199.378 2.00287C197.103 1.76763 194.787 1.58625 192.494 1.46461L192.55 0.198059C194.86 0.32094 197.194 0.503554 199.487 0.740676L199.378 2.00287ZM178.692 1.41385L178.643 0.147327C180.766 0.0501376 182.93 0.000621219 185.075 0L185.598 0.000923723L185.595 1.26872L185.075 1.26779C182.947 1.26838 180.799 1.31759 178.692 1.41385V1.41385Z" fill="#3F3D56"/>
<path d="M521 413.486H97.6154V414.754H521V413.486Z" fill="#3F3D56"/>
<path d="M345.414 200.327L351.19 298.581C351.19 298.581 365.053 337.249 364.475 374.015C364.475 374.015 359.277 388.595 363.32 391.13C367.363 393.666 369.674 395.567 367.363 397.469C365.053 399.371 363.32 403.808 365.053 405.076C366.786 406.344 367.363 408.245 366.786 408.245H349.457C349.457 408.245 352.923 398.737 347.725 396.201C342.526 393.666 345.414 387.327 345.414 387.327L306.715 263.083L276.102 377.184C276.102 377.184 281.3 380.988 277.257 382.889C273.214 384.791 271.481 380.988 273.214 384.791C274.946 388.595 272.636 390.496 272.636 391.13C272.636 391.764 255.308 389.228 255.308 389.228C255.308 389.228 263.972 380.988 259.929 379.086C255.885 377.184 254.153 375.283 255.308 374.015C256.463 372.747 261.084 360.703 261.084 360.703C261.084 360.703 263.394 315.063 263.972 313.161C264.549 311.259 263.972 302.385 263.972 297.947C263.972 293.51 263.394 275.761 265.127 271.324C266.86 266.886 268.593 212.371 277.834 206.032C287.076 199.693 345.414 200.327 345.414 200.327Z" fill="#2F2E41"/>
<path d="M272.058 387.961C272.058 387.961 283.611 413.95 275.524 417.12C267.438 420.289 257.041 417.754 254.73 421.557C252.42 425.36 227.005 429.798 226.428 420.289C225.85 410.781 254.153 393.032 254.153 393.032L257.839 386.517L272.058 387.961Z" fill="#2F2E41"/>
<path d="M365.631 406.977C365.631 406.977 377.183 432.967 369.096 436.137C361.01 439.306 350.613 436.771 348.302 440.574C345.992 444.377 320.577 448.815 320 439.306C319.422 429.798 347.725 412.049 347.725 412.049L351.412 405.533L365.631 406.977Z" fill="#2F2E41"/>
<path d="M312.202 80.8378C322.729 80.8378 331.263 71.4722 331.263 59.9192C331.263 48.3662 322.729 39.0006 312.202 39.0006C301.675 39.0006 293.141 48.3662 293.141 59.9192C293.141 71.4722 301.675 80.8378 312.202 80.8378Z" fill="#A0616A"/>
<path d="M325.198 71.0122L322.888 89.3952L305.56 103.975L300.939 97.002V72.9139L325.198 71.0122Z" fill="#A0616A"/>
<path d="M298.051 94.4666C298.051 94.4666 315.956 96.3682 325.198 89.3954L343.681 209.202C343.681 209.202 278.412 214.907 275.524 211.103V173.704L287.076 112.85L298.051 94.4666Z" fill="#3F3D56"/>
<path d="M323.608 83.6674L329.819 89.3954C329.819 89.3954 355.234 93.8326 353.501 101.439L346.57 191.453L348.88 221.88C348.88 221.88 329.241 216.175 314.224 221.88C299.206 227.585 311.137 99.2821 311.137 99.2821C311.137 99.2821 324.905 85.5461 323.608 83.6674Z" fill="#3787FF"/>
<path d="M300.939 90.6057C300.939 90.6057 282.455 105.243 280.145 114.751C277.834 124.26 270.326 224.415 270.326 224.415C270.326 224.415 273.791 222.514 275.524 225.683C277.257 228.853 303.827 95.6195 300.939 90.6057Z" fill="#3787FF"/>
<path d="M293.15 59.0078C293.15 59.0078 291.087 55.611 291.88 51.9529C292.355 49.8759 292.542 47.7326 292.436 45.5946C292.436 45.5946 294.103 39.6719 295.769 36.3622C297.436 33.0524 296.642 31.6588 301.88 30.6137C307.118 29.5685 304.975 22.078 318.785 30.1782C319.251 30.8921 319.899 31.4385 320.647 31.7485C321.396 32.0586 322.212 32.1183 322.991 31.9201C325.848 31.3104 326.88 35.6654 326.88 35.6654C326.88 35.6654 328.785 34.446 329.499 36.188C330.213 37.9299 335.306 35.1425 335.306 46.9008C335.306 58.6592 329.511 69.1624 329.511 69.1624C329.511 69.1624 329.935 49.3834 320.491 47.3802C311.047 45.3769 300.888 39.5413 298.428 47.0318C297.1 51.2358 295.329 55.2551 293.15 59.0078V59.0078Z" fill="#2F2E41"/>
<path d="M329.717 63.7105C330.746 63.7105 331.58 62.49 331.58 60.9846C331.58 59.4791 330.746 58.2587 329.717 58.2587C328.689 58.2587 327.855 59.4791 327.855 60.9846C327.855 62.49 328.689 63.7105 329.717 63.7105Z" fill="#A0616A"/>
<path d="M251.432 257.013C246.862 253.997 241.351 254.227 239.256 254.458C240.054 256.595 242.447 262.048 247.018 265.066C251.6 268.09 257.103 267.852 259.195 267.624C258.398 265.487 256.003 260.032 251.432 257.013Z" fill="#D0CDE1"/>
<path d="M272.909 316.868H244.343C242.639 316.868 241.004 317.611 239.799 318.934C238.593 320.257 237.916 322.051 237.916 323.922C237.916 325.793 238.593 327.587 239.799 328.91C241.004 330.232 242.639 330.976 244.343 330.976H272.909C274.613 330.974 276.246 330.23 277.45 328.907C278.654 327.585 279.331 325.791 279.331 323.922C279.331 322.052 278.654 320.259 277.45 318.936C276.246 317.614 274.613 316.87 272.909 316.868Z" fill="#D0CDE1"/>
<path d="M402.266 242.412H242.105C240.242 242.412 238.397 242.815 236.676 243.597C234.955 244.38 233.391 245.526 232.073 246.972C230.756 248.418 229.711 250.134 228.998 252.024C228.285 253.913 227.918 255.937 227.918 257.982V343.62C227.918 347.75 229.413 351.71 232.073 354.63C234.734 357.55 238.343 359.19 242.105 359.19H402.266C404.129 359.19 405.974 358.788 407.696 358.005C409.417 357.223 410.981 356.076 412.298 354.63C413.616 353.184 414.661 351.468 415.374 349.579C416.087 347.69 416.454 345.665 416.454 343.62V257.982C416.454 255.937 416.087 253.913 415.374 252.024C414.661 250.134 413.616 248.418 412.298 246.972C410.981 245.526 409.417 244.38 407.696 243.597C405.974 242.815 404.129 242.412 402.266 242.412ZM238.143 253.033C238.459 252.97 245.959 251.57 252.169 255.671C258.378 259.771 260.764 267.699 260.863 268.034L261.114 268.889L260.308 269.046C259.158 269.243 257.996 269.337 256.832 269.326C254.012 269.326 249.925 268.814 246.281 266.408C240.072 262.309 237.686 254.38 237.588 254.045L237.337 253.19L238.143 253.033ZM272.909 332.543H244.343C242.26 332.543 240.262 331.635 238.789 330.018C237.315 328.401 236.488 326.208 236.488 323.922C236.488 321.635 237.315 319.442 238.789 317.826C240.262 316.209 242.26 315.3 244.343 315.3H272.909C274.993 315.3 276.991 316.209 278.464 317.826C279.937 319.442 280.765 321.635 280.765 323.922C280.765 326.208 279.937 328.401 278.464 330.018C276.991 331.635 274.993 332.543 272.909 332.543V332.543ZM402.885 330.975C402.878 333.468 401.973 335.856 400.367 337.618C398.762 339.38 396.586 340.373 394.315 340.38H372.891C370.62 340.373 368.444 339.38 366.838 337.618C365.232 335.855 364.327 333.468 364.321 330.975V316.868C364.327 314.376 365.232 311.988 366.838 310.226C368.444 308.464 370.62 307.47 372.891 307.463H394.315C396.586 307.47 398.762 308.464 400.367 310.226C401.973 311.988 402.878 314.376 402.885 316.868L402.885 330.975Z" fill="#D0CDE1"/>
<path d="M379.675 328.232H370.391C369.728 328.232 369.092 328.521 368.624 329.036C368.155 329.55 367.891 330.248 367.891 330.976C367.891 331.703 368.155 332.401 368.624 332.915C369.092 333.43 369.728 333.719 370.391 333.719H379.675C380.338 333.719 380.974 333.43 381.442 332.915C381.911 332.401 382.174 331.703 382.174 330.976C382.174 330.248 381.911 329.55 381.442 329.036C380.974 328.521 380.338 328.232 379.675 328.232V328.232ZM379.675 332.151H370.391C370.25 332.152 370.11 332.121 369.98 332.062C369.85 332.004 369.732 331.917 369.632 331.808C369.532 331.699 369.453 331.569 369.399 331.426C369.345 331.283 369.317 331.13 369.317 330.976C369.317 330.821 369.345 330.668 369.399 330.525C369.453 330.382 369.532 330.253 369.632 330.143C369.732 330.034 369.85 329.948 369.98 329.889C370.11 329.83 370.25 329.8 370.391 329.8H379.675C379.816 329.8 379.955 329.83 380.086 329.889C380.216 329.948 380.334 330.034 380.434 330.143C380.534 330.253 380.613 330.382 380.667 330.525C380.721 330.668 380.749 330.821 380.749 330.976C380.749 331.13 380.721 331.283 380.667 331.426C380.613 331.569 380.534 331.699 380.434 331.808C380.334 331.917 380.216 332.004 380.086 332.062C379.955 332.121 379.816 332.152 379.675 332.151V332.151Z" fill="#D0CDE1"/>
<path d="M396.815 328.232H387.531C387.202 328.232 386.877 328.302 386.573 328.44C386.269 328.578 385.993 328.78 385.761 329.034C385.528 329.289 385.344 329.592 385.218 329.925C385.092 330.258 385.027 330.615 385.027 330.976C385.027 331.336 385.092 331.693 385.218 332.026C385.344 332.359 385.528 332.662 385.761 332.917C385.993 333.171 386.269 333.373 386.573 333.511C386.877 333.649 387.202 333.719 387.531 333.719H396.815C397.477 333.719 398.113 333.43 398.582 332.915C399.051 332.401 399.314 331.703 399.314 330.976C399.314 330.248 399.051 329.55 398.582 329.036C398.113 328.521 397.477 328.232 396.815 328.232ZM396.815 332.151H387.531C387.39 332.152 387.25 332.121 387.12 332.063C386.99 332.004 386.871 331.917 386.771 331.808C386.672 331.699 386.593 331.569 386.539 331.426C386.485 331.283 386.457 331.13 386.457 330.976C386.457 330.821 386.485 330.668 386.539 330.525C386.593 330.382 386.672 330.253 386.771 330.143C386.871 330.034 386.99 329.948 387.12 329.889C387.25 329.83 387.39 329.8 387.531 329.8H396.815C397.098 329.801 397.37 329.925 397.57 330.145C397.771 330.366 397.883 330.664 397.883 330.976C397.883 331.287 397.771 331.586 397.57 331.806C397.37 332.026 397.098 332.15 396.815 332.151V332.151Z" fill="#D0CDE1"/>
<path d="M379.675 321.179H370.391C369.728 321.179 369.092 321.468 368.624 321.982C368.155 322.497 367.891 323.194 367.891 323.922C367.891 324.649 368.155 325.347 368.624 325.861C369.092 326.376 369.728 326.665 370.391 326.665H379.675C380.003 326.665 380.329 326.595 380.633 326.457C380.936 326.32 381.212 326.118 381.445 325.863C381.677 325.608 381.862 325.306 381.988 324.973C382.113 324.639 382.178 324.282 382.178 323.922C382.178 323.561 382.113 323.204 381.988 322.871C381.862 322.538 381.677 322.235 381.445 321.981C381.212 321.726 380.936 321.524 380.633 321.386C380.329 321.249 380.003 321.178 379.675 321.179V321.179ZM379.675 325.097H370.391C370.107 325.097 369.834 324.974 369.633 324.753C369.433 324.533 369.32 324.234 369.32 323.922C369.32 323.61 369.433 323.311 369.633 323.091C369.834 322.87 370.107 322.746 370.391 322.746H379.675C379.959 322.746 380.232 322.87 380.432 323.091C380.633 323.311 380.746 323.61 380.746 323.922C380.746 324.234 380.633 324.533 380.432 324.753C380.232 324.974 379.959 325.097 379.675 325.097V325.097Z" fill="#D0CDE1"/>
<path d="M396.815 321.179H387.531C387.202 321.178 386.877 321.249 386.573 321.386C386.269 321.524 385.993 321.726 385.761 321.981C385.528 322.235 385.344 322.538 385.218 322.871C385.092 323.204 385.027 323.561 385.027 323.922C385.027 324.282 385.092 324.639 385.218 324.973C385.344 325.306 385.528 325.608 385.761 325.863C385.993 326.118 386.269 326.32 386.573 326.457C386.877 326.595 387.202 326.665 387.531 326.665H396.815C397.477 326.665 398.113 326.376 398.582 325.861C399.051 325.347 399.314 324.649 399.314 323.922C399.314 323.194 399.051 322.497 398.582 321.982C398.113 321.468 397.477 321.179 396.815 321.179ZM396.815 325.097H387.531C387.246 325.097 386.974 324.974 386.773 324.753C386.572 324.533 386.459 324.234 386.459 323.922C386.459 323.61 386.572 323.311 386.773 323.091C386.974 322.87 387.246 322.746 387.531 322.746H396.815C397.099 322.746 397.371 322.87 397.572 323.091C397.773 323.311 397.886 323.61 397.886 323.922C397.886 324.234 397.773 324.533 397.572 324.753C397.371 324.974 397.099 325.097 396.815 325.097Z" fill="#D0CDE1"/>
<path d="M379.675 314.125H370.391C369.728 314.125 369.092 314.414 368.624 314.928C368.155 315.443 367.891 316.141 367.891 316.868C367.891 317.596 368.155 318.293 368.624 318.808C369.092 319.322 369.728 319.611 370.391 319.611H379.675C380.338 319.611 380.974 319.322 381.442 318.808C381.911 318.293 382.174 317.596 382.174 316.868C382.174 316.141 381.911 315.443 381.442 314.928C380.974 314.414 380.338 314.125 379.675 314.125V314.125ZM379.675 318.044H370.391C370.107 318.044 369.834 317.92 369.633 317.699C369.433 317.479 369.32 317.18 369.32 316.868C369.32 316.556 369.433 316.257 369.633 316.037C369.834 315.816 370.107 315.692 370.391 315.692H379.675C379.959 315.692 380.231 315.816 380.432 316.037C380.633 316.257 380.746 316.556 380.746 316.868C380.746 317.18 380.633 317.479 380.432 317.699C380.231 317.92 379.959 318.044 379.675 318.044V318.044Z" fill="#D0CDE1"/>
<path d="M396.814 314.125H387.531C387.202 314.124 386.877 314.195 386.573 314.333C386.269 314.47 385.993 314.672 385.761 314.927C385.528 315.182 385.344 315.484 385.218 315.817C385.092 316.15 385.027 316.508 385.027 316.868C385.027 317.229 385.092 317.586 385.218 317.919C385.344 318.252 385.528 318.554 385.761 318.809C385.993 319.064 386.269 319.266 386.573 319.404C386.877 319.541 387.202 319.612 387.531 319.611H396.814C397.477 319.61 398.112 319.321 398.579 318.806C399.047 318.292 399.31 317.595 399.31 316.868C399.31 316.141 399.047 315.444 398.579 314.93C398.112 314.416 397.477 314.126 396.814 314.125V314.125ZM396.814 318.044H387.531C387.246 318.044 386.974 317.92 386.773 317.699C386.572 317.479 386.459 317.18 386.459 316.868C386.459 316.556 386.572 316.257 386.773 316.037C386.974 315.816 387.246 315.692 387.531 315.692H396.814C397.099 315.692 397.371 315.816 397.572 316.037C397.773 316.257 397.886 316.556 397.886 316.868C397.886 317.18 397.773 317.479 397.572 317.699C397.371 317.92 397.099 318.044 396.814 318.044Z" fill="#D0CDE1"/>
<path d="M351.768 223.147L347.627 237.975C347.627 237.975 346.569 265.619 332.707 261.815C318.844 258.012 336.75 225.683 336.75 225.683L340.793 218.71L351.768 223.147Z" fill="#A0616A"/>
<path d="M273.214 223.147L269.073 237.975C269.073 237.975 268.015 265.619 254.153 261.815C240.29 258.012 258.196 225.683 258.196 225.683L262.239 218.71L273.214 223.147Z" fill="#A0616A"/>
<path d="M348.88 97.0021C348.88 97.0021 358.122 94.4665 361.01 111.582C363.898 128.697 367.363 177.507 367.363 177.507L353.501 228.853C353.501 228.853 339.638 220.612 336.75 221.88L347.659 177.304L338.483 131.866C338.483 131.866 346.569 97.0021 348.88 97.0021Z" fill="#3482F8"/>
<path opacity="0.15" d="M335.443 132.734L347.572 177.106L335.443 222.113L342.374 177.106L335.443 132.734Z" fill="black"/>
<path d="M280.145 131.866L259.351 221.88C259.351 221.88 270.319 225.853 274.363 229.022L280.145 131.866Z" fill="#3787FF"/>
<path d="M62.013 358.078C93.9133 358.078 119.774 329.698 119.774 294.689C119.774 259.679 93.9133 231.299 62.013 231.299C30.1127 231.299 4.25244 259.679 4.25244 294.689C4.25244 329.698 30.1127 358.078 62.013 358.078Z" fill="#3F3D56"/>
<path opacity="0.1" d="M62.013 349.204C89.4473 349.204 111.687 324.796 111.687 294.689C111.687 264.581 89.4473 240.173 62.013 240.173C34.5788 240.173 12.3389 264.581 12.3389 294.689C12.3389 324.796 34.5788 349.204 62.013 349.204Z" fill="black"/>
<path d="M59.6328 326.858V318.923C55.9781 318.845 52.1972 317.43 49.9919 315.466L51.5041 310.203C54.1248 312.358 57.3031 313.541 60.5779 313.581C65.0519 313.581 68.0765 310.36 68.0765 305.882C68.0765 301.561 65.6189 298.89 60.956 296.533C54.5287 293.391 50.5589 289.777 50.5589 282.943C50.5589 276.422 54.2767 271.473 60.074 270.294V262.36H63.9806V269.98C66.8938 270.024 69.7354 270.978 72.1724 272.73L70.5969 277.915C68.2596 276.159 65.4898 275.227 62.6574 275.244C57.8056 275.244 55.9781 278.857 55.9781 282C55.9781 286.085 58.3095 288.127 63.7917 290.956C70.2819 294.255 73.5587 298.34 73.5587 305.332C73.5587 311.538 70.093 317.352 63.6025 318.687V326.858H59.6328Z" fill="white"/>
<path d="M123.03 423.628C82.2455 430.303 40.7845 430.303 0 423.628V408.415C40.8277 414.415 82.2022 414.415 123.03 408.415V423.628Z" fill="#3F3D56"/>
<path d="M123.03 400.174C82.2455 406.849 40.7845 406.849 0 400.174V384.96C40.8277 390.961 82.2022 390.961 123.03 384.96V400.174Z" fill="#3F3D56"/>
<path d="M123.03 376.72C82.2455 383.395 40.7845 383.395 0 376.72V361.506C40.8277 367.507 82.2022 367.507 123.03 361.506V376.72Z" fill="#3F3D56"/>
</g>
<defs>
<clipPath id="clip0">
<rect width="521" height="445" fill="white"/>
</clipPath>
</defs>
</svg>
